<svg xmlns="http://www.w3.org/2000/svg" width="90" height="90" viewBox="0 0 90 90">
  <g id="img25" transform="translate(-286.711 -4786)">
    <circle id="Ellipse_13776" data-name="Ellipse 13776" cx="45" cy="45" r="45" transform="translate(286.711 4786)" fill="#fff"/>
    <g id="Group_1181360" data-name="Group 1181360" transform="translate(252.689 4785.641)">
      <path id="Path_1010416" data-name="Path 1010416" d="M60.64,49.615a.776.776,0,1,1,0-1.552h3.5V34.522a.776.776,0,0,1,.776-.776H70.39a.776.776,0,0,1,.776.776v13.54h1.5v-18.7a.776.776,0,0,1,.776-.776h5.473a.776.776,0,0,1,.776.776v18.7h1.5V31.969a.776.776,0,0,1,.776-.776h5.472a.776.776,0,0,1,.776.776v4.746a9.217,9.217,0,0,1,1.5-.793V25.559a.776.776,0,0,1,.776-.776h5.472a.776.776,0,0,1,.776.776V35.9a9.237,9.237,0,1,1-11.157,13.71ZM91.921,17.547l2.152.211-7.751,5.947a2.738,2.738,0,0,0-3.608.339l-3.838-1.936a2.738,2.738,0,1,0-5.168.682l-4.8,4.289a2.737,2.737,0,1,0,1.122,1.071l4.71-4.207a2.738,2.738,0,0,0,3.44-.453l3.838,1.937a2.738,2.738,0,1,0,5.249-.493l7.889-6.053-.228,2.326a.774.774,0,1,0,1.54.152l.4-4.073a.774.774,0,0,0-.719-.877l-4.074-.4a.774.774,0,1,0-.152,1.54ZM64.09,74.354a.774.774,0,0,0,1.067.243l5.988-3.789a.774.774,0,0,0,.243-1.067l-.444-.7.5-.292,11.129,1.607a6,6,0,0,0,4.26-.933l15.184-8.764a3.288,3.288,0,0,0-.719-6.023,3.448,3.448,0,0,0-2.5.269l-8.961,4.643a3.285,3.285,0,0,0-1.76-1.4l-12.55-4.2a6.028,6.028,0,0,0-4.005.021l-8.292,2.874-1.448-2.288a.774.774,0,0,0-1.067-.243L54.721,58.1a.774.774,0,0,0-.243,1.067Z" transform="translate(0)" fill-rule="evenodd"/>
      <path id="Path_1010417" data-name="Path 1010417" d="M147.086,173.819h3.92v12.764h-3.92Z" transform="translate(-81.384 -138.512)" fill="#72c2e9"/>
      <path id="Path_1010418" data-name="Path 1010418" d="M216.8,131.624h3.92v17.925H216.8Z" transform="translate(-142.575 -101.478)" fill="#55b5e5"/>
      <g id="Group_1181359" data-name="Group 1181359" transform="translate(56.209 20.44)">
        <path id="Path_1010419" data-name="Path 1010419" d="M286.522,168.258h2a9.246,9.246,0,0,1,1.919-10.078v-5.24h-3.921Z" transform="translate(-259.974 -140.626)" fill="#689ff2" fill-rule="evenodd"/>
        <path id="Path_1010420" data-name="Path 1010420" d="M360.161,109.63v-9.091h-3.92v9.1a9.312,9.312,0,0,1,3.92-.009Z" transform="translate(-321.166 -94.634)" fill="#1e84b8" fill-rule="evenodd"/>
        <path id="Path_1010421" data-name="Path 1010421" d="M69.482,346.281l8.784,13.881,4.68-2.961-8.784-13.881Z" transform="translate(-69.482 -307.718)" fill="#1e84b8" fill-rule="evenodd"/>
        <path id="Path_1010422" data-name="Path 1010422" d="M133.837,339.2l6.042,9.549.761-.444a.772.772,0,0,1,.522-.111l11.394,1.646a4.484,4.484,0,0,0,3.2-.7l15.219-8.786a1.744,1.744,0,0,0,.862-1.081,1.718,1.718,0,0,0-1.19-2.128,1.9,1.9,0,0,0-1.383.154l-9.188,4.761a3.328,3.328,0,0,1-1.955,3.192,3.058,3.058,0,0,1-2.382.169l-9.168-3.07a.774.774,0,0,1,.491-1.468l9.167,3.07a1.541,1.541,0,0,0,1.2-.091,2.43,2.43,0,0,0,1.031-1.059,1.763,1.763,0,0,0-1.118-2.17l-12.55-4.2a4.47,4.47,0,0,0-3.011.015Z" transform="translate(-125.965 -301.451)" fill="#f7d199" fill-rule="evenodd"/>
        <path id="Path_1010423" data-name="Path 1010423" d="M322.715,188.128a7.685,7.685,0,1,0,2.251,5.434A7.685,7.685,0,0,0,322.715,188.128Zm-2.512,3.46a.776.776,0,1,1-1.552,0,1.1,1.1,0,0,0-.758-1.072,1.833,1.833,0,0,0-1.222,0,1.1,1.1,0,0,0-.758,1.072c0,.876.764,1.043,1.529,1.21,1.38.3,2.762.6,2.762,2.737a2.587,2.587,0,0,1-1.777,2.527,3.2,3.2,0,0,1-.368.111v.532a.776.776,0,1,1-1.552,0v-.532a3.2,3.2,0,0,1-.368-.111,2.587,2.587,0,0,1-1.777-2.527.776.776,0,0,1,1.552,0,1.1,1.1,0,0,0,.758,1.072,1.835,1.835,0,0,0,1.222,0,1.1,1.1,0,0,0,.758-1.072c0-.886-.769-1.054-1.537-1.222-1.378-.3-2.754-.6-2.754-2.725a2.587,2.587,0,0,1,1.777-2.527,3.179,3.179,0,0,1,.368-.111v-.532a.776.776,0,0,1,1.552,0v.532a3.179,3.179,0,0,1,.368.111A2.587,2.587,0,0,1,320.2,191.588Z" transform="translate(-280.225 -169.534)" fill="#f0cb48" fill-rule="evenodd"/>
        <path id="Path_1010424" data-name="Path 1010424" d="M154.605,116.832a1.185,1.185,0,1,0,1.186,1.186,1.185,1.185,0,0,0-1.186-1.186Z" transform="translate(-143.153 -108.935)" fill="#fff" fill-rule="evenodd"/>
        <path id="Path_1010425" data-name="Path 1010425" d="M294.042,87.434a1.185,1.185,0,1,0,1.186,1.186,1.185,1.185,0,0,0-1.186-1.186Z" transform="translate(-265.535 -83.132)" fill="#fff" fill-rule="evenodd"/>
        <path id="Path_1010426" data-name="Path 1010426" d="M224.323,52.266a1.185,1.185,0,1,0,1.186,1.185,1.185,1.185,0,0,0-1.186-1.185Z" transform="translate(-204.343 -52.266)" fill="#fff" fill-rule="evenodd"/>
      </g>
    </g>
  </g>
</svg>
