<svg xmlns="http://www.w3.org/2000/svg" width="70" height="70" viewBox="0 0 70 70">
  <g id="img21" transform="translate(-348.711 -4497)">
    <circle id="Ellipse_13896" data-name="Ellipse 13896" cx="35" cy="35" r="35" transform="translate(348.711 4497)" fill="#f1f5dd"/>
    <g id="Group_1184037" data-name="Group 1184037" transform="translate(322.311 4512)">
      <path id="Path_1018428" data-name="Path 1018428" d="M215.54,56.06l-.369-.132V53.438a1.176,1.176,0,0,1,.618.4.781.781,0,1,0,1.279-.9,2.857,2.857,0,0,0-1.9-1.1v-.161a.781.781,0,0,0-1.562,0v.22q-.176.039-.357.094a2.631,2.631,0,0,0-1.793,2.308,2.453,2.453,0,0,0,1.5,2.444c.144.068.368.161.653.272V60a2.007,2.007,0,0,1-1-.613.781.781,0,1,0-1.217.98,3.725,3.725,0,0,0,2.216,1.24v.107a.781.781,0,0,0,1.563,0v-.047a2.741,2.741,0,0,0,2.594-2.335A3.136,3.136,0,0,0,215.54,56.06Zm-2.524-1.648a1.1,1.1,0,0,1,.592-.892v1.8A.9.9,0,0,1,213.017,54.413Zm3.2,4.719a1.164,1.164,0,0,1-1.044.949V57.593A1.548,1.548,0,0,1,216.215,59.131Z" transform="translate(-153.319 -46.918)" fill="#484e32"/>
      <path id="Path_1018429" data-name="Path 1018429" d="M90.249,268.552V254.89H108a.781.781,0,0,0,0-1.562H89.467a.781.781,0,0,0-.781.781v15.225a.781.781,0,0,0,.781.781H108a.781.781,0,0,0,0-1.562Z" transform="translate(-40.358 -233.536)" fill="#484e32"/>
      <path id="Path_1018430" data-name="Path 1018430" d="M77.11,24.242h-.861v-7.09a.781.781,0,0,0-.781-.781H68.16a9.745,9.745,0,1,0-14.3,0H47.217a2.312,2.312,0,0,0-2.309,2.309V37.691A2.312,2.312,0,0,0,47.217,40h28.25a.781.781,0,0,0,.781-.781v-7.09h.861a.781.781,0,0,0,.781-.781V25.023A.781.781,0,0,0,77.11,24.242ZM52.829,9.747a8.182,8.182,0,1,1,12.99,6.623H56.2a8.189,8.189,0,0,1-3.374-6.623ZM74.686,38.437H47.217a.747.747,0,0,1-.746-.747V18.679a.747.747,0,0,1,.746-.747H74.686v6.309H67.642a.781.781,0,0,0-.781.781v6.324a.781.781,0,0,0,.781.781h7.044v6.309Zm1.643-7.872H68.423V25.8h7.905Z" fill="#484e32"/>
      <path id="Path_1018431" data-name="Path 1018431" d="M370.176,352.591h1.263a.781.781,0,0,0,0-1.562h-1.263a.781.781,0,0,0,0,1.563Z" transform="translate(-299.136 -323.604)" fill="#484e32"/>
    </g>
  </g>
</svg>
