<svg xmlns="http://www.w3.org/2000/svg" width="84" height="84" viewBox="0 0 84 84">
  <g id="img3" transform="translate(-626.711 -3000)">
    <rect id="Rectangle_455441" data-name="Rectangle 455441" width="84" height="84" transform="translate(626.711 3000)" fill="#cfde90"/>
    <g id="Group_1183969" data-name="Group 1183969" transform="translate(636.711 3010)">
      <g id="Group_1183968" data-name="Group 1183968">
        <circle id="Ellipse_13876" data-name="Ellipse 13876" cx="2" cy="2" r="2" transform="translate(3 20)" fill="#f2ab39"/>
        <circle id="Ellipse_13877" data-name="Ellipse 13877" cx="2" cy="2" r="2" transform="translate(57 20)" fill="#f2ab39"/>
        <path id="Path_1018233" data-name="Path 1018233" d="M9,3H47a4,4,0,0,1,4,4V61H17a4,4,0,0,1-4-4V7A4,4,0,0,0,9,3" fill="#f2ab39"/>
      </g>
      <path id="Path_1018234" data-name="Path 1018234" d="M35,53H55v4a4,4,0,0,1-4,4H17a4,4,0,0,0,4-4V53h8" fill="#b2b2b2"/>
      <path id="Path_1018235" data-name="Path 1018235" d="M9,3A4,4,0,0,0,5,7v4h8V7A4,4,0,0,0,9,3Z" fill="#b2b2b2"/>
      <path id="Path_1018236" data-name="Path 1018236" d="M29,43h6V54a3,3,0,0,1-6,0Z" fill="#e0e0e0"/>
      <circle id="Ellipse_13878" data-name="Ellipse 13878" cx="15" cy="15" r="15" transform="translate(17 7)" fill="#ffd954"/>
      <circle id="Ellipse_13879" data-name="Ellipse 13879" cx="11" cy="11" r="11" transform="translate(21 11)" fill="#e0e0e0"/>
      <path id="Path_1018237" data-name="Path 1018237" d="M32,11a11,11,0,0,1,0,22" fill="#bfbfbf"/>
      <path id="Path_1018238" data-name="Path 1018238" d="M42.6,32.6a15,15,0,0,1-21.2,0l2.82-2.82a11,11,0,0,0,15.56,0Z" fill="#69491a"/>
      <path id="Path_1018239" data-name="Path 1018239" d="M21.4,11.4a15,15,0,0,1,21.2,0l-2.82,2.82a11,11,0,0,0-15.56,0Z" fill="#69491a"/>
      <path id="Path_1018240" data-name="Path 1018240" d="M59,19a3,3,0,0,0-2.82,2H52V19h3a1,1,0,0,0,1-.68L56.72,16H59V14H56a1,1,0,0,0-1,.68L54.28,17H52V7a5,5,0,0,0-5-5H9A5,5,0,0,0,4,7v4a1,1,0,0,0,1,1h7v5H9.72L9,14.68A1,1,0,0,0,8,14H5v2H7.28l.77,2.32A1,1,0,0,0,9,19h3v2H7.82a3,3,0,1,0,0,2H12v2H9a1,1,0,0,0-.95.68L7.28,28H5v2H8a1,1,0,0,0,1-.68L9.72,27H12V57a5,5,0,0,0,5,5H51a5,5,0,0,0,5-5V53a1,1,0,0,0-1-1H52V27h2.28l.77,2.32A1,1,0,0,0,56,30h3V28H56.72L56,25.68A1,1,0,0,0,55,25H52V23h4.18A3,3,0,1,0,59,19ZM5,23a1,1,0,1,1,1-1A1,1,0,0,1,5,23Zm45-2H48a16.31,16.31,0,0,0-.24-2H50ZM34,44V54a2,2,0,0,1-4,0V44ZM32,32A10,10,0,1,1,42,22,10,10,0,0,1,32,32Zm7.74-19.15a11.94,11.94,0,0,0-15.48,0l-1.41-1.42a13.92,13.92,0,0,1,18.3,0Zm-18.31,0,1.42,1.41A11.9,11.9,0,0,0,20.05,21h-2a13.93,13.93,0,0,1,3.38-8.15ZM20.05,23a11.9,11.9,0,0,0,2.8,6.74l-1.42,1.41A13.93,13.93,0,0,1,18.05,23Zm4.21,8.15A11.9,11.9,0,0,0,31,34v2a13.93,13.93,0,0,1-8.15-3.38ZM33,34a11.9,11.9,0,0,0,6.74-2.8l1.41,1.42A13.93,13.93,0,0,1,33,36Zm9.57-2.8-1.42-1.41A11.9,11.9,0,0,0,44,23h2a13.93,13.93,0,0,1-3.43,8.15ZM44,21a11.9,11.9,0,0,0-2.8-6.74l1.42-1.41A13.93,13.93,0,0,1,46,21ZM6,10V7a3,3,0,0,1,6,0v3Zm7-6H47a3,3,0,0,1,3,3V17H47.19a16,16,0,0,0-30.38,0H14V7a5,5,0,0,0-1-3Zm1,15h2.29a16.31,16.31,0,0,0-.24,2H14Zm0,4h2.05a16.31,16.31,0,0,0,.24,2H14Zm0,34V27h2.81A16,16,0,0,0,31,38v4H29a1,1,0,0,0-1,1v9H21a1,1,0,0,0-1,1v4a3,3,0,0,1-6,0Zm40,0a3,3,0,0,1-3,3H21a4.92,4.92,0,0,0,1-3V54h6a4,4,0,0,0,8,0H54Zm-4-5H36V43a1,1,0,0,0-1-1H33V38A16,16,0,0,0,47.19,27H50Zm0-27H47.71A16.309,16.309,0,0,0,48,23h2Zm9-2a1,1,0,1,1,1-1A1,1,0,0,1,59,23Z"/>
      <path id="Path_1018241" data-name="Path 1018241" d="M16,40H26v2H16Z"/>
      <path id="Path_1018242" data-name="Path 1018242" d="M16,44H26v2H16Z"/>
      <path id="Path_1018243" data-name="Path 1018243" d="M16,48H26v2H16Z"/>
      <path id="Path_1018244" data-name="Path 1018244" d="M38,40H48v2H38Z"/>
      <path id="Path_1018245" data-name="Path 1018245" d="M38,44H48v2H38Z"/>
      <path id="Path_1018246" data-name="Path 1018246" d="M38,48H48v2H38Z"/>
      <path id="Path_1018247" data-name="Path 1018247" d="M33,14H31v2H29a1,1,0,0,0-1,1v5a1,1,0,0,0,1,1h5v3H28v2h3v2h2V28h2a1,1,0,0,0,1-1V22a1,1,0,0,0-1-1H30V18h6V16H33Z"/>
    </g>
  </g>
</svg>
