<svg xmlns="http://www.w3.org/2000/svg" width="84" height="84" viewBox="0 0 84 84">
  <g id="img16" transform="translate(-185.746 -5957)">
    <rect id="Rectangle_455468" data-name="Rectangle 455468" width="84" height="84" rx="10" transform="translate(185.746 5957)" fill="#cfde90"/>
    <g id="Group_1186077" data-name="Group 1186077" transform="translate(181.649 5968.375)">
      <g id="Group_1186075" data-name="Group 1186075" transform="translate(18.472 0.897)">
        <path id="Path_1022016" data-name="Path 1022016" d="M115.474,7.5H89.8a2.4,2.4,0,0,0-2.4,2.4V38.968a2.4,2.4,0,0,0,2.4,2.4h25.675a2.4,2.4,0,0,0,2.273-1.631h1.662V9.235H117.78A2.4,2.4,0,0,0,115.474,7.5Z" transform="translate(-79.942 -7.5)" fill="#60b7ff"/>
        <path id="Path_1022017" data-name="Path 1022017" d="M325.493,7.5H322.1a2.4,2.4,0,0,1,2.4,2.4V38.968a2.4,2.4,0,0,1-2.4,2.4h3.391a2.4,2.4,0,0,0,2.4-2.4V9.9a2.4,2.4,0,0,0-2.4-2.4Z" transform="translate(-286.57 -7.5)" fill="#26a6fe"/>
        <path id="Path_1022018" data-name="Path 1022018" d="M119.973,48.738l-1.055-1.394h-3.391a2.4,2.4,0,0,0-2.4,2.4v26.7h28.39a2.4,2.4,0,0,0,2.4-2.4V48.738Z" transform="translate(-102.592 -42.578)" fill="#26a6fe"/>
        <path id="Path_1022019" data-name="Path 1022019" d="M173.867,49.747H171.95a2.4,2.4,0,0,0-2.4-2.4H143.873a2.4,2.4,0,0,0-2.4,2.4V78.813a2.4,2.4,0,0,0,2.4,2.4h25.675a2.4,2.4,0,0,0,2.155-1.346h2.163V49.747Z" transform="translate(-127.547 -42.578)" fill="#eaf6ff"/>
        <path id="Path_1022020" data-name="Path 1022020" d="M379.569,47.344h-3.391a2.4,2.4,0,0,1,2.4,2.4V78.812a2.4,2.4,0,0,1-2.4,2.4h3.391a2.4,2.4,0,0,0,2.4-2.4V49.746A2.4,2.4,0,0,0,379.569,47.344Z" transform="translate(-334.177 -42.578)" fill="#d8ecfe"/>
        <path id="Path_1022021" data-name="Path 1022021" d="M76.934,203.739a2.4,2.4,0,0,0-2.4-2.4h-30.8l-2.716-4.989H39.367a1.8,1.8,0,0,0-1.6-.966H26.878a1.8,1.8,0,0,0-1.8,1.8v32.775a2.4,2.4,0,0,0,2.4,2.4H74.532a2.4,2.4,0,0,0,2.4-2.4H78.58v-26.22Z" transform="translate(-25.076 -172.906)" fill="#fdb441"/>
        <path id="Path_1022022" data-name="Path 1022022" d="M132.788,196.348l2.61,4.989h3.391l-2.61-4.989a1.8,1.8,0,0,0-1.6-.966h-3.391A1.8,1.8,0,0,1,132.788,196.348Z" transform="translate(-118.498 -172.906)" fill="#fea613"/>
        <path id="Path_1022023" data-name="Path 1022023" d="M441.889,245.16H438.5a2.4,2.4,0,0,1,2.4,2.4v26.22a2.4,2.4,0,0,1-2.4,2.4h3.391a2.4,2.4,0,0,0,2.4-2.4v-26.22A2.4,2.4,0,0,0,441.889,245.16Z" transform="translate(-389.042 -216.729)" fill="#fea613"/>
        <path id="Path_1022024" data-name="Path 1022024" d="M151.227,301.04H123A2.042,2.042,0,0,1,120.96,299V279.511A2.042,2.042,0,0,1,123,277.469h28.225a2.042,2.042,0,0,1,2.042,2.042V299A2.042,2.042,0,0,1,151.227,301.04Z" transform="translate(-109.49 -245.173)" fill="#fedba6"/>
        <path id="Path_1022025" data-name="Path 1022025" d="M208.881,412.814H194.062v-.973a7.409,7.409,0,1,1,14.819,0v.973Z" transform="translate(-173.847 -356.948)" fill="#f47c7c"/>
        <circle id="Ellipse_14007" data-name="Ellipse 14007" cx="5.676" cy="5.676" r="5.676" transform="translate(21.949 36.132)" fill="#ffa78f"/>
      </g>
      <g id="Group_1186076" data-name="Group 1186076" transform="translate(17.575 0)">
        <path id="Path_1022026" data-name="Path 1022026" d="M144.624,295.334a2.942,2.942,0,0,0,2.939-2.939V272.908a2.942,2.942,0,0,0-2.939-2.939H116.4a2.942,2.942,0,0,0-2.939,2.939v19.487a2.942,2.942,0,0,0,2.939,2.939ZM124,293.54v-.076a6.512,6.512,0,1,1,13.024.076Zm1.734-13.161a4.778,4.778,0,1,1,4.778,4.779,4.784,4.784,0,0,1-4.778-4.779Zm-10.479,12.016V272.908a1.146,1.146,0,0,1,1.145-1.145h28.225a1.146,1.146,0,0,1,1.145,1.145v19.487a1.146,1.146,0,0,1-1.145,1.145h-5.806a8.317,8.317,0,0,0-4.8-7.6,6.573,6.573,0,1,0-7.009,0,8.316,8.316,0,0,0-4.8,7.529v.076H116.4A1.146,1.146,0,0,1,115.254,292.395Z" transform="translate(-101.99 -237.673)"/>
        <path id="Path_1022027" data-name="Path 1022027" d="M181.89,82.9a.9.9,0,0,0-.9-.9h-9.729a.9.9,0,0,0,0,1.794h9.729A.9.9,0,0,0,181.89,82.9Z" transform="translate(-152.089 -72.189)"/>
        <path id="Path_1022028" data-name="Path 1022028" d="M176.129,127.534h-4.864a.9.9,0,1,0,0,1.794h4.864a.9.9,0,0,0,0-1.794Z" transform="translate(-152.089 -112.278)"/>
        <path id="Path_1022029" data-name="Path 1022029" d="M176.129,164.533h-4.864a.9.9,0,1,0,0,1.794h4.864a.9.9,0,0,0,0-1.794Z" transform="translate(-152.089 -144.85)"/>
        <path id="Path_1022030" data-name="Path 1022030" d="M268.024,127.534H252.59a.9.9,0,0,0,0,1.794h15.434a.9.9,0,1,0,0-1.794Z" transform="translate(-223.686 -112.278)"/>
        <path id="Path_1022031" data-name="Path 1022031" d="M268.024,164.533H252.59a.9.9,0,0,0,0,1.794h15.434a.9.9,0,1,0,0-1.794Z" transform="translate(-223.686 -144.85)"/>
        <path id="Path_1022032" data-name="Path 1022032" d="M268.024,201.531H252.59a.9.9,0,0,0,0,1.794h15.434a.9.9,0,1,0,0-1.794Z" transform="translate(-223.686 -177.423)"/>
        <path id="Path_1022033" data-name="Path 1022033" d="M71.32,28.431H67.164V19.562a.9.9,0,1,0-1.794,0v8.869H39.307L37.985,25.9h3.63a.9.9,0,1,0,0-1.794H37.046l-.1-.185a2.7,2.7,0,0,0-2.391-1.448H33.293V8.066a1.507,1.507,0,0,1,1.505-1.5H63.864a1.507,1.507,0,0,1,1.5,1.5v7.309a.9.9,0,0,0,1.794,0V8.066a3.3,3.3,0,0,0-3.3-3.3H60.7V3.3A3.3,3.3,0,0,0,57.4,0H28.33a3.3,3.3,0,0,0-3.3,3.3V22.476H20.274a2.7,2.7,0,0,0-2.7,2.7V39.98a.9.9,0,1,0,1.794,0V25.174a.906.906,0,0,1,.9-.9H34.557a.909.909,0,0,1,.8.485l2.61,4.989a.9.9,0,0,0,.8.481H71.32a1.507,1.507,0,0,1,1.5,1.505V57.95a1.507,1.507,0,0,1-1.5,1.505H20.874a1.507,1.507,0,0,1-1.505-1.505V44.177a.9.9,0,1,0-1.794,0V57.949a3.3,3.3,0,0,0,3.3,3.3H71.32a3.3,3.3,0,0,0,3.3-3.3V31.73a3.3,3.3,0,0,0-3.3-3.3ZM26.825,3.3A1.507,1.507,0,0,1,28.33,1.794H57.4A1.507,1.507,0,0,1,58.9,3.3V4.767H34.8a3.3,3.3,0,0,0-3.3,3.3v14.41H26.825Z" transform="translate(-17.575 0)"/>
      </g>
    </g>
  </g>
</svg>
