<svg xmlns="http://www.w3.org/2000/svg" xmlns:xlink="http://www.w3.org/1999/xlink" width="292" height="139" viewBox="0 0 292 139">
  <defs>
    <clipPath id="clip-path">
      <path id="Path_1017390" data-name="Path 1017390" d="M217.435,162.167c-15.079-.178-36.4-.263-40.034,1.216-15.053,6.133,3.777,26.155-17.265,30.465-13.532,2.771-21.476,4.116-20.929,20.783.453,13.8-1.1,13.987-14.44,17.3-6.9,1.716-8.553,8.182-8.731,14.6a19.959,19.959,0,0,0,.925,4.962c33.476.117,66.987.036,100.475.016,33.488.02,67,.1,100.475-.016a19.941,19.941,0,0,0,.925-4.962c-.179-6.414-1.826-12.881-8.731-14.6-13.338-3.315-14.893-3.505-14.44-17.3.547-16.667-7.4-18.011-20.929-20.783-21.042-4.31-2.212-24.332-17.265-30.465C253.839,161.9,232.514,161.988,217.435,162.167Z" transform="translate(-116.033 -162.071)"/>
    </clipPath>
  </defs>
  <g id="img21" transform="translate(-185.711 -6675)">
    <path id="Rectangle_457141" data-name="Rectangle 457141" d="M10,0H282a10,10,0,0,1,10,10V139a0,0,0,0,1,0,0H0a0,0,0,0,1,0,0V10A10,10,0,0,1,10,0Z" transform="translate(185.711 6675)" fill="#f1f5dd"/>
    <g id="Group_1183779" data-name="Group 1183779" transform="translate(11944.269 10316.786)">
      <g id="Group_1183715" data-name="Group 1183715" transform="translate(-11744 -3628.929)">
        <g id="Group_1183702" data-name="Group 1183702" transform="translate(30.041 0)">
          <path id="Path_1017349" data-name="Path 1017349" d="M217.435,162.167c-15.079-.178-36.4-.263-40.034,1.216-15.053,6.133,3.777,26.155-17.265,30.465-13.532,2.771-21.476,4.116-20.929,20.783.453,13.8-1.1,13.987-14.44,17.3-6.9,1.716-8.553,8.182-8.731,14.6a19.959,19.959,0,0,0,.925,4.962c33.476.117,66.987.036,100.475.016,33.488.02,67,.1,100.475-.016a19.941,19.941,0,0,0,.925-4.962c-.179-6.414-1.826-12.881-8.731-14.6-13.338-3.315-14.893-3.505-14.44-17.3.547-16.667-7.4-18.011-20.929-20.783-21.042-4.31-2.212-24.332-17.265-30.465C253.839,161.9,232.514,161.988,217.435,162.167Z" transform="translate(-116.033 -162.071)" fill="#315e7a" fill-rule="evenodd"/>
          <g id="Group_1183701" data-name="Group 1183701">
            <g id="Group_1183700" data-name="Group 1183700" clip-path="url(#clip-path)">
              <path id="Path_1017350" data-name="Path 1017350" d="M252.566,216.533h11.223a3.3,3.3,0,0,0,3.289-3.289h0a3.3,3.3,0,0,0-3.289-3.289H252.566a3.3,3.3,0,0,0-3.289,3.289h0a3.3,3.3,0,0,0,3.289,3.289ZM167.293,197.8h27.073a3.988,3.988,0,0,1,3.977,3.977h0a3.988,3.988,0,0,1-3.977,3.977h15.3a6.519,6.519,0,0,1,6.5,6.5v0a6.519,6.519,0,0,1-6.5,6.5h-3.139l0,.152v0a6.518,6.518,0,0,1-6.5,6.5H177.847a6.518,6.518,0,0,1-6.5-6.5v0l0-.152H158.116a6.518,6.518,0,0,1-6.5-6.5v0a6.518,6.518,0,0,1,6.5-6.5h9.178a3.988,3.988,0,0,1-3.977-3.977h0a3.987,3.987,0,0,1,3.976-3.977Zm99.459-20.421h37.857a3.95,3.95,0,0,1,3.939,3.939h0a3.95,3.95,0,0,1-3.939,3.939h-2.561a6.519,6.519,0,0,1,6.5,6.5v0a6.519,6.519,0,0,1-6.5,6.5H315.01a3.95,3.95,0,0,1,3.939,3.939h0a3.95,3.95,0,0,1-3.939,3.939H277.153a3.95,3.95,0,0,1-3.939-3.939h0a3.95,3.95,0,0,1,3.939-3.939H250.5a6.518,6.518,0,0,1-6.5-6.5v0a6.519,6.519,0,0,1,6.5-6.5h16.251a3.95,3.95,0,0,1-3.939-3.939h0a3.95,3.95,0,0,1,3.939-3.939Zm23.708,47.032h16.827a4.946,4.946,0,0,0,4.932-4.932h0a4.946,4.946,0,0,0-4.932-4.932H290.46a4.946,4.946,0,0,0-4.932,4.932h0A4.946,4.946,0,0,0,290.46,224.407Z" transform="translate(-137.683 -171.383)" fill="#467999" fill-rule="evenodd"/>
              <g id="Group_1183664" data-name="Group 1183664" transform="translate(79.832 0.727)">
                <path id="Path_1017351" data-name="Path 1017351" d="M353.167,208.145c0,8.792-7.445,15.922-16.627,15.922s-16.627-7.13-16.627-15.922c.65-9.649,8.164-22.107,14.123-29.666,1.237-1.57,5.084-6.378,6.774-3.007,2.128,4.248,3.922,8.836,5.876,13.179,2.884,6.194,5.819,12.617,6.482,19.495ZM340,166.229c1.218-2.97,1.062-2.575,4.719-1.53,2.044.583,1.775.323,3.039,1.884,1.236,1.526-1.847,1.841-3.1,3.052-2.1,2.033-1.493,2.367-4.92,1.4A14.9,14.9,0,0,1,340,166.229Z" transform="translate(-319.913 -163.927)" fill="#fce38f" fill-rule="evenodd"/>
                <g id="Group_1183663" data-name="Group 1183663" transform="translate(3.984 31.228)">
                  <path id="Path_1017352" data-name="Path 1017352" d="M341.133,243.783a12.642,12.642,0,1,0,14.139,10.943A12.642,12.642,0,0,0,341.133,243.783Z" transform="translate(-330.088 -243.681)" fill="#fff4d1" fill-rule="evenodd"/>
                  <path id="Path_1017353" data-name="Path 1017353" d="M350.647,264.741l.477-.118a.547.547,0,0,1,.654.363,4.033,4.033,0,0,0,.616,1.228,2.944,2.944,0,0,0,1.391.959,3.891,3.891,0,0,0,1.134.211l-.72-5.192a9.448,9.448,0,0,1-2.265-.539,3.591,3.591,0,0,1-1.491-1.167,3.764,3.764,0,0,1-.681-1.739,4.187,4.187,0,0,1,.245-2.121,3.451,3.451,0,0,1,1.339-1.659,4.98,4.98,0,0,1,1.751-.73l-.228-1.639a.549.549,0,0,1,1.088-.152l.229,1.655a5.048,5.048,0,0,1,1.819.244,3.671,3.671,0,0,1,1.814,1.3,4.791,4.791,0,0,1,.794,1.635.548.548,0,0,1-.405.68l-.5.117a.547.547,0,0,1-.644-.358,2.9,2.9,0,0,0-1-1.47,2.647,2.647,0,0,0-1.641-.451l.635,4.578a12.461,12.461,0,0,1,2.338.478,3.931,3.931,0,0,1,1.783,1.25,4.076,4.076,0,0,1,.792,1.977,4.452,4.452,0,0,1-.259,2.245,3.939,3.939,0,0,1-1.389,1.806,4.873,4.873,0,0,1-2.071.859l.162,1.163a.549.549,0,0,1-1.088.151l-.167-1.2a5.49,5.49,0,0,1-1.984-.263,4.142,4.142,0,0,1-2-1.473,5.334,5.334,0,0,1-.923-1.961.548.548,0,0,1,.4-.665Zm5.366,2.552a3.728,3.728,0,0,0,1.307-.506,2.31,2.31,0,0,0,1.109-2.329,2.121,2.121,0,0,0-.5-1.137,2.552,2.552,0,0,0-1.223-.7,13.153,13.153,0,0,0-1.38-.267l.685,4.937Zm-2.684-11.359a2.691,2.691,0,0,0-1.566.845,2.052,2.052,0,0,0-.462,1.626,1.813,1.813,0,0,0,.655,1.215,4.681,4.681,0,0,0,1.968.6Z" transform="translate(-342.032 -248.726)" fill="#d9b4a7" fill-rule="evenodd"/>
                </g>
              </g>
              <g id="Group_1183680" data-name="Group 1183680" transform="translate(-15.654 -99.778)">
                <g id="Group_1183665" data-name="Group 1183665" transform="translate(34.844 0)">
                  <rect id="Rectangle_457486" data-name="Rectangle 457486" width="11.33" height="14.351" transform="translate(9.516 30.061)" fill="#e09377"/>
                  <path id="Path_1017354" data-name="Path 1017354" d="M172.686-61.458h24.675v10.87A10.9,10.9,0,0,1,186.493-39.72h-2.939a10.9,10.9,0,0,1-10.868-10.868v-3.4h-1.764a1.052,1.052,0,0,1-1.049-1.049V-58.9a1.051,1.051,0,0,1,1.049-1.049h1.764Z" transform="translate(-167.981 73.71)" fill="#fc9" fill-rule="evenodd"/>
                  <path id="Path_1017355" data-name="Path 1017355" d="M168.776-64.8h2.107a10.772,10.772,0,0,1-1.138-4.825v-3.4h-1.764a1.052,1.052,0,0,1-1.049-1.049v-3.86a1.051,1.051,0,0,1,1.049-1.049h1.764v3.491a.537.537,0,0,0,.536.537h1.693a.537.537,0,0,0,.536-.537v-2.9h19.471a6.479,6.479,0,0,0,6.462-6.462v-7.889H176.96c-5.639,0-11.919,2.876-11.919,9.358v14.852A3.747,3.747,0,0,0,168.776-64.8Z" transform="translate(-165.041 92.748)" fill="#3b4866" fill-rule="evenodd"/>
                </g>
                <g id="Group_1183679" data-name="Group 1183679" transform="translate(0 37.404)">
                  <g id="Group_1183667" data-name="Group 1183667" transform="translate(0 81.772)">
                    <g id="Group_1183666" data-name="Group 1183666" transform="translate(0 106.955)">
                      <path id="Path_1017356" data-name="Path 1017356" d="M103.17,489.991c-.876.67-6.283,4.925-6.714,5.138-.476.233-11.125,3-11.942,3.1-.863.107-3.841.25-4.394.668-2.479,1.884-3.579,2.882-4.042,6.057-.244,1.666,1.417,1.221,2.848,1.237,2.154.027,21.94.069,22.332-.137.6-.312.747-1.459,1.659-1.587,1.91-.266,1.666.1,3.178,1.208.876.639,2.327.515,3.388.552a35.024,35.024,0,0,0,5.96-.19c1.164-2.649.813-5.841.821-8.7.005-2.421.061-1.672-1.2-3.84q-1.068-1.837-2.137-3.672Z" transform="translate(-76.054 -487.847)" fill="#2e364a" fill-rule="evenodd"/>
                      <path id="Path_1017357" data-name="Path 1017357" d="M215.293,485.547c.843.772,6.038,5.666,6.461,5.922.467.28,11.073,3.914,11.895,4.075.867.169,3.875.511,4.408.993,2.387,2.173,3.435,3.309,3.692,6.736.135,1.8-1.518,1.216-2.969,1.143-2.185-.108-22.238-1.315-22.622-1.56-.585-.372-.66-1.608-1.576-1.8-1.917-.406-1.7,0-3.3,1.091-.93.629-2.392.4-3.47.377a33.68,33.68,0,0,1-6.027-.581c-1-2.907-.434-6.3-.251-9.354.157-2.59.051-1.793,1.473-4.032l2.41-3.793Z" transform="translate(-152.201 -484.761)" fill="#2e364a" fill-rule="evenodd"/>
                    </g>
                    <path id="Path_1017358" data-name="Path 1017358" d="M138.556,220.151l-2.517,53.658c-.976,13.89-2.115,27.947-2.88,41.833-.113,2.042-.523,6.007.6,7.694,2.145,3.217,9.667,3.785,12.891,2.209,5.225-2.552,5.429-6,5.935-11.386,1.453-15.449,3.084-30.92,4.64-46.361l2.308-45.076.576-1.663,1.888-.536,1.732.644.419,1.931-.838,50.759c-.849,14.972-1.763,29.953-2.6,44.921-.141,2.522.079,2.813,2.475,4.286,3.47,2.131,4.528,2.472,8.527,2.469,2.8,0,5.52-2.917,7.321-4.871,1.123-1.219.643-.863.794-2.937,1.106-15.175,2.068-30.4,3.1-45.584l1.258-27.044-.42-30.694-1.993-2.683-16.47-.107H149.05l-8.292.644-1.784,1.932Z" transform="translate(-110.697 -211.613)" fill="#333" fill-rule="evenodd"/>
                  </g>
                  <g id="Group_1183678" data-name="Group 1183678" transform="translate(4.455 0)">
                    <g id="Group_1183670" data-name="Group 1183670" transform="translate(0 8.844)">
                      <g id="Group_1183668" data-name="Group 1183668" transform="translate(0 0.601)">
                        <path id="Path_1017359" data-name="Path 1017359" d="M105.182,269.605c-.488,1.851-.283,1.9-2.311,2.5a26.04,26.04,0,0,1-6.435.022,12.5,12.5,0,0,1-1.785-2.336,51.464,51.464,0,0,1-.028-7.2,19.477,19.477,0,0,1,1.642-2.489,65.832,65.832,0,0,1,7.334-.773c.034.4.314,3.353.39,3.527.4.919,1.142.719,1.637,2.865C106.232,268.367,105.8,267.275,105.182,269.605Z" transform="translate(-91.738 -168.321)" fill="#fc9" fill-rule="evenodd"/>
                        <path id="Path_1017360" data-name="Path 1017360" d="M108.844,26.9,88.48,66.907l-1.049,6.085q.086,5.993.173,11.985.084,5.843.167,11.685c.037,2.7-.018,19.5.477,20.527,1.163,2.423,2.657,2.276,5.187,2.591,2.178.271,6.9.863,7.868-1.8.988-2.721.7-16.174.728-19.935q.092-12.443.186-24.889l.005-.691,7.764-18.044L111.664,41.2l-.42-10.8Z" transform="translate(-87.431 -26.901)" fill="#323e59" fill-rule="evenodd"/>
                      </g>
                      <g id="Group_1183669" data-name="Group 1183669" transform="translate(65.448)">
                        <path id="Path_1017361" data-name="Path 1017361" d="M254.577,25.365l3.147,2.78,2.1,3.987,13.636,27.535,3.566,1.784c2.247,2.4,21.672,22.82,21.834,23.574a15.635,15.635,0,0,1-.927,3.285c-.759,1.172-5.145,4.357-6.56,4.491a14.369,14.369,0,0,1-4.407-1.436c-2.97-2.058-6.418-4.872-9.372-7.109L261.6,72.151l-5.561-13.586Z" transform="translate(-254.577 -25.365)" fill="#323e59" fill-rule="evenodd"/>
                        <path id="Path_1017362" data-name="Path 1017362" d="M361.968,179.556c1.1,1.564,1.271,1.436.429,3.378a26.043,26.043,0,0,1-4.122,4.942,12.471,12.471,0,0,1-2.937-.135,51.433,51.433,0,0,1-5.53-4.606,19.618,19.618,0,0,1-.851-2.858,28.636,28.636,0,0,1,2.271-3.532,3.221,3.221,0,0,1,4.39-.86,3.664,3.664,0,0,0,.414.249c.96.284,1.285-.412,3.246.589C361.7,177.955,360.584,177.582,361.968,179.556Z" transform="translate(-312.001 -116.633)" fill="#fc9" fill-rule="evenodd"/>
                      </g>
                    </g>
                    <g id="Group_1183677" data-name="Group 1183677" transform="translate(13.713)">
                      <g id="Group_1183671" data-name="Group 1183671" transform="translate(0 3.527)">
                        <rect id="Rectangle_457487" data-name="Rectangle 457487" width="24.128" height="73.223" transform="translate(20.185 7.284)" fill="#f5f8ff"/>
                        <path id="Path_1017363" data-name="Path 1017363" d="M144.945,12.136l-3.28.44-3.115.417a32.87,32.87,0,0,0-3.958.614c-.463.275-2.545,2.41-3.044,2.907-.566.565-2.364,2.251-2.573,2.982a37.893,37.893,0,0,0-.6,4.994c-.075.888-.138,1.778-.217,2.666q-1.715,18.542-3.427,37.086c-.693,7.487-1.469,15.045-2.092,22.527-.5,6.012-.226,8.686,3.48,13.506,3.115,4.051,11.159,3.621,15.836,3.3A10.944,10.944,0,0,0,152.5,92.624c.628-24.9.978-49.893,1.471-74.8Z" transform="translate(-122.452 -11.999)" fill="#3b4866" fill-rule="evenodd"/>
                        <path id="Path_1017364" data-name="Path 1017364" d="M207.995,17.362l4.273-5.577s9.758.637,9.251.677c-.092.369,4.056,2.368,4.656,3.052a7.9,7.9,0,0,1,2.086,4.183c.143,1.733.166,3.732.256,5.505.366,7.2.788,14.406,1.18,21.608.82,15.034,1.629,30.067,2.275,45.109.227,5.288.149,8.532-5.03,11.085-1.959.966-10.116,1.237-11.846.357a11.9,11.9,0,0,1-6.708-7.74c-.684-1.956-.338-34.08-.344-38.971q-.014-11.224-.028-22.449-.009-7.857-.02-15.715Z" transform="translate(-174.479 -11.785)" fill="#3b4866" fill-rule="evenodd"/>
                      </g>
                      <g id="Group_1183676" data-name="Group 1183676" transform="translate(13.548)">
                        <g id="Group_1183672" data-name="Group 1183672" transform="translate(0 3.279)">
                          <path id="Path_1017365" data-name="Path 1017365" d="M165.366,11.544l-5.743-.393-1.573,2.072-.42,14.03,1.1,1.154,4.721.053-5.928,3.672-.471,1.836,17.987,33.623,2.307.419L191.089,33.18l-.418-1.469-3.987-2.623,3.513.106,1.1-1-1.309-16.683-1.1-.211-10.687.109.573-.005-3.412,3.472-3.34-3.4Z" transform="translate(-157.052 -11.151)" fill="#7f8eb0" fill-rule="evenodd"/>
                          <path id="Path_1017366" data-name="Path 1017366" d="M178.806,11.859l3.645,22.527L188.116,51.9l2.1.84,4.3-15.84,2.519-17.94.017-7.292-5.043.088L188.6,15.2l-3.344-3.408Z" transform="translate(-170.288 -11.468)" fill="#b1bfc2" fill-rule="evenodd"/>
                        </g>
                        <g id="Group_1183675" data-name="Group 1183675" transform="translate(6.685)">
                          <g id="Group_1183673" data-name="Group 1183673" transform="translate(6.87 7.172)">
                            <path id="Path_1017367" data-name="Path 1017367" d="M198.789,21.095l-3.447,4.031.916,2.139,5.539.043.756-1.218-.578-.964Z" transform="translate(-193.904 -21.095)" fill="#900" fill-rule="evenodd"/>
                            <path id="Path_1017368" data-name="Path 1017368" d="M194.024,36.852,191.67,83.137l5.159,6.673,1.889.084,5.371-8.477L199.563,36.9Z" transform="translate(-191.67 -30.682)" fill="#c30" fill-rule="evenodd"/>
                          </g>
                          <g id="Group_1183674" data-name="Group 1183674">
                            <path id="Path_1017369" data-name="Path 1017369" d="M174.124,6.553l.168-2.224,4.574-1.551,6.883,7.007.135.17-3.451,4.026-3.524.253Z" transform="translate(-174.124 -2.778)" fill="#fff" fill-rule="evenodd"/>
                            <path id="Path_1017370" data-name="Path 1017370" d="M215.436,6.553l-.168-2.224-4.574-1.551-6.883,7.007,3.317,4.2,3.525.253Z" transform="translate(-192.187 -2.778)" fill="#fff" fill-rule="evenodd"/>
                          </g>
                        </g>
                      </g>
                    </g>
                  </g>
                </g>
              </g>
              <g id="Group_1183699" data-name="Group 1183699" transform="translate(105.731 -99.008)">
                <g id="Group_1183682" data-name="Group 1183682" transform="translate(56.325 0)">
                  <rect id="Rectangle_457488" data-name="Rectangle 457488" width="11.593" height="18.188" transform="translate(17.935 25.733)" fill="#ad715c"/>
                  <g id="Group_1183681" data-name="Group 1183681">
                    <path id="Path_1017371" data-name="Path 1017371" d="M542.175-68.109,565.8-70.067l.286,3.45,2.509-.208a.736.736,0,0,1,.793.672l.338,4.078a1.472,1.472,0,0,1-1.342,1.585l-1.778.147.485,5.856A11.888,11.888,0,0,1,556.258-41.7h0a11.888,11.888,0,0,1-12.792-10.835Z" transform="translate(-537.37 78.178)" fill="#e09377" fill-rule="evenodd"/>
                    <path id="Path_1017372" data-name="Path 1017372" d="M554.583-78.73c-3.063.826-17,4.5-21.328,4.5-2.256-.194-3-1.449-3.252-3.6a8.848,8.848,0,0,1,.826-5.524c1.988-3.253,4.154-3.89,7.572-5.212A36.108,36.108,0,0,1,547-90.7c2.167-.094,4.524-.273,6.565.57,2.943,1.217,4.682,2.99,6.643,5.427.633.787,2,4.309,1.844,5.177a21.2,21.2,0,0,1-4.085.47,56.906,56.906,0,0,1,1.175,6.106l1.776-.148a1.473,1.473,0,0,0,1.331-1.233c1.007,2.342,2.3,7.3-2.831,10.622A11.9,11.9,0,0,1,548.791-54.3a11.9,11.9,0,0,1-11.432-6.233c.285-.1.563-.193.83-.294,1.634-.626-.278-3.784,3.847-6.1,2.2-1.236,5.309-1.969,7.753-1.06,2.1.9,1.75,1.879,4.334,1.7,1.882-.132,1.889.107,2.411-1.647a16.6,16.6,0,0,0-.182-4.019A51.765,51.765,0,0,0,554.583-78.73Z" transform="translate(-529.903 90.782)" fill="#2e364a" fill-rule="evenodd"/>
                  </g>
                </g>
                <g id="Group_1183698" data-name="Group 1183698" transform="translate(0 36.634)">
                  <g id="Group_1183684" data-name="Group 1183684" transform="translate(41.046 81.772)">
                    <g id="Group_1183683" data-name="Group 1183683" transform="translate(0 106.955)">
                      <path id="Path_1017373" data-name="Path 1017373" d="M629.926,489.991c.876.67,6.283,4.925,6.714,5.138.476.233,11.125,3,11.942,3.1.863.107,3.841.25,4.394.668,2.479,1.884,3.579,2.882,4.042,6.057.244,1.666-1.417,1.221-2.848,1.237-2.154.027-21.94.069-22.332-.137-.6-.312-.747-1.459-1.659-1.587-1.91-.266-1.666.1-3.178,1.208-.876.639-2.327.515-3.388.552a35.023,35.023,0,0,1-5.96-.19c-1.164-2.649-.814-5.841-.821-8.7-.005-2.421-.061-1.672,1.2-3.84q1.068-1.837,2.137-3.672Z" transform="translate(-567.488 -487.847)" fill="#2e364a" fill-rule="evenodd"/>
                      <path id="Path_1017374" data-name="Path 1017374" d="M517.344,485.547c-.843.772-6.038,5.666-6.461,5.922-.467.28-11.073,3.914-11.895,4.075-.867.169-3.875.511-4.408.993-2.387,2.173-3.435,3.309-3.692,6.736-.135,1.8,1.518,1.216,2.969,1.143,2.185-.108,22.238-1.315,22.622-1.56.585-.372.66-1.608,1.576-1.8,1.917-.406,1.7,0,3.3,1.091.93.629,2.392.4,3.47.377a33.684,33.684,0,0,0,6.027-.581c1-2.907.434-6.3.251-9.354-.157-2.59-.051-1.793-1.473-4.032l-2.41-3.793Z" transform="translate(-490.881 -484.761)" fill="#2e364a" fill-rule="evenodd"/>
                    </g>
                    <path id="Path_1017375" data-name="Path 1017375" d="M577.536,220.151l2.517,53.658c.976,13.89,2.115,27.947,2.88,41.833.113,2.042.522,6.007-.6,7.694-2.145,3.217-9.667,3.785-12.891,2.209-5.225-2.552-5.429-6-5.935-11.386-1.453-15.449-3.084-30.92-4.64-46.361l-2.308-45.076-.576-1.663-1.888-.536-1.732.644-.419,1.931.838,50.759c.849,14.972,1.764,29.953,2.6,44.921.141,2.522-.079,2.813-2.475,4.286-3.47,2.131-4.528,2.472-8.527,2.469-2.8,0-5.52-2.917-7.32-4.871-1.123-1.219-.643-.863-.794-2.937-1.106-15.175-2.068-30.4-3.1-45.584L531.9,245.1l.42-30.694,1.993-2.683,16.47-.107h16.256l8.292.644,1.784,1.932Z" transform="translate(-515.84 -211.613)" fill="#333" fill-rule="evenodd"/>
                  </g>
                  <g id="Group_1183697" data-name="Group 1183697" transform="translate(0 0)">
                    <g id="Group_1183691" data-name="Group 1183691" transform="translate(53.967)">
                      <g id="Group_1183685" data-name="Group 1183685" transform="translate(0 3.527)">
                        <rect id="Rectangle_457489" data-name="Rectangle 457489" width="24.128" height="73.223" transform="translate(13.246 7.284)" fill="#f5f8ff"/>
                        <path id="Path_1017376" data-name="Path 1017376" d="M599.413,12.136l3.28.44,3.115.417a32.883,32.883,0,0,1,3.958.614c.463.275,2.545,2.41,3.044,2.907.566.565,2.363,2.251,2.573,2.982a37.821,37.821,0,0,1,.6,4.994c.075.888.138,1.778.217,2.666q1.715,18.542,3.427,37.086c.693,7.487,1.47,15.045,2.092,22.527.5,6.012.226,8.686-3.48,13.506-3.115,4.051-11.159,3.621-15.836,3.3a10.944,10.944,0,0,1-10.541-10.953c-.628-24.9-.978-49.893-1.471-74.8Z" transform="translate(-564.346 -11.999)" fill="#3b4866" fill-rule="evenodd"/>
                        <path id="Path_1017377" data-name="Path 1017377" d="M547.925,17.362l-4.273-5.577s-9.758.637-9.251.677c.092.369-4.056,2.368-4.656,3.052a7.9,7.9,0,0,0-2.086,4.183c-.143,1.733-.166,3.732-.256,5.505-.365,7.2-.788,14.406-1.18,21.608-.82,15.034-1.629,30.067-2.275,45.109-.227,5.288-.149,8.532,5.03,11.085,1.959.966,10.116,1.237,11.847.357a11.9,11.9,0,0,0,6.708-7.74c.684-1.956.338-34.08.344-38.971q.013-11.224.028-22.449.01-7.857.02-15.715Z" transform="translate(-523.881 -11.785)" fill="#3b4866" fill-rule="evenodd"/>
                      </g>
                      <g id="Group_1183690" data-name="Group 1183690" transform="translate(9.764)">
                        <g id="Group_1183686" data-name="Group 1183686" transform="translate(0 3.279)">
                          <path id="Path_1017378" data-name="Path 1017378" d="M574.751,11.544l5.743-.393,1.573,2.072.42,14.03-1.1,1.154-4.721.053,5.927,3.672.472,1.836L565.078,67.589l-2.308.419L549.028,33.18l.419-1.469,3.987-2.623-3.514.106-1.1-1,1.309-16.683,1.1-.211,10.687.109-.574-.005,3.412,3.472,3.341-3.4Z" transform="translate(-548.818 -11.151)" fill="#7f8eb0" fill-rule="evenodd"/>
                          <path id="Path_1017379" data-name="Path 1017379" d="M586.177,11.859l-3.645,22.527L576.867,51.9l-2.1.84-4.3-15.84-2.518-17.94-.016-7.292,5.042.088,3.41,3.436,3.345-3.408Z" transform="translate(-560.449 -11.468)" fill="#b1bfc2" fill-rule="evenodd"/>
                        </g>
                        <g id="Group_1183689" data-name="Group 1183689" transform="translate(4.313)">
                          <g id="Group_1183687" data-name="Group 1183687" transform="translate(3.959 7.172)">
                            <path id="Path_1017380" data-name="Path 1017380" d="M583.336,21.095l3.447,4.031-.916,2.139-5.539.043-.756-1.218.579-.964Z" transform="translate(-575.802 -21.095)" fill="#900" fill-rule="evenodd"/>
                            <path id="Path_1017381" data-name="Path 1017381" d="M580.01,36.852l2.354,46.285L577.2,89.81l-1.889.084-5.371-8.477L574.471,36.9Z" transform="translate(-569.945 -30.682)" fill="#c30" fill-rule="evenodd"/>
                          </g>
                          <g id="Group_1183688" data-name="Group 1183688">
                            <path id="Path_1017382" data-name="Path 1017382" d="M600.935,6.553l-.168-2.224-4.574-1.551L589.31,9.785l-.134.17,3.451,4.026,3.525.253Z" transform="translate(-577.686 -2.778)" fill="#fff" fill-rule="evenodd"/>
                            <path id="Path_1017383" data-name="Path 1017383" d="M559.833,6.553,560,4.329l4.574-1.551,6.883,7.007-3.316,4.2-3.524.253Z" transform="translate(-559.833 -2.778)" fill="#fff" fill-rule="evenodd"/>
                          </g>
                        </g>
                      </g>
                    </g>
                    <g id="Group_1183696" data-name="Group 1183696" transform="translate(0 7.292)">
                      <g id="Group_1183693" data-name="Group 1183693">
                        <g id="Group_1183692" data-name="Group 1183692" transform="translate(13.277)">
                          <path id="Path_1017384" data-name="Path 1017384" d="M464.784,22.953l-3.147,2.78-2.1,3.987L445.9,57.254l-3.567,1.784c-2.247,2.4-21.671,22.82-21.834,23.574a15.588,15.588,0,0,0,.927,3.285c.759,1.172,5.145,4.357,6.56,4.491a14.373,14.373,0,0,0,4.407-1.436c2.97-2.058,6.417-4.872,9.372-7.109l15.988-12.1,5.561-13.586L467.407,21.4Z" transform="translate(-420.289 -21.4)" fill="#323e59" fill-rule="evenodd"/>
                          <path id="Path_1017385" data-name="Path 1017385" d="M421.5,176.857a4.672,4.672,0,1,1-.515,6.2A4.415,4.415,0,0,1,421.5,176.857Z" transform="translate(-419.964 -115.523)" fill="#2b3140" fill-rule="evenodd"/>
                        </g>
                        <path id="Path_1017386" data-name="Path 1017386" d="M387.416,188.464c1.809.854,2.536.637,4.545.7,1.164.039,7.9.439,8.4.156.989-.562,5.094-3.045,5.544-3.856,1.086-1.961,1.373-2.348.457-4.372-.6-1.331-5.132-3.185-6.6-3.443a42.3,42.3,0,0,0-8.752-.125c-.155,1.816-.141,2.339,1.759,2.97.666.222,1.44.135,1.543.953-1.847.583-4.574.872-6.113,1.922a6.511,6.511,0,0,0-2.038,2.858c-.274.61-.005.68.468,1.412C386.97,188.161,386.894,188.141,387.416,188.464Z" transform="translate(-386.056 -116.292)" fill="#e09377" fill-rule="evenodd"/>
                      </g>
                      <g id="Group_1183695" data-name="Group 1183695" transform="translate(71.047 3.732)">
                        <path id="Path_1017387" data-name="Path 1017387" d="M622.463,30.932l16.552,35.949.631,5.665-2.1,3.567L611.32,95.521l-4.2.525-4.407-2.308-.838-4.616.629-3.463,22.834-23.753Z" transform="translate(-588.418 -30.932)" fill="#323e59" fill-rule="evenodd"/>
                        <g id="Group_1183694" data-name="Group 1183694" transform="translate(0 56.841)">
                          <path id="Path_1017388" data-name="Path 1017388" d="M602.946,176.857a4.673,4.673,0,1,1-.515,6.2A4.415,4.415,0,0,1,602.946,176.857Z" transform="translate(-588.131 -176.096)" fill="#2b3140" fill-rule="evenodd"/>
                          <path id="Path_1017389" data-name="Path 1017389" d="M568.86,188.464c1.809.854,2.536.637,4.545.7,1.164.039,7.9.439,8.4.156.989-.562,5.094-3.045,5.544-3.856,1.086-1.961,1.372-2.348.457-4.372-.6-1.331-5.132-3.185-6.6-3.443a42.3,42.3,0,0,0-8.752-.125c-.155,1.816-.141,2.339,1.758,2.97.666.222,1.44.135,1.543.953-1.847.583-4.574.872-6.113,1.922a6.512,6.512,0,0,0-2.038,2.858c-.274.61-.005.68.468,1.412C568.414,188.161,568.338,188.141,568.86,188.464Z" transform="translate(-567.5 -176.865)" fill="#e09377" fill-rule="evenodd"/>
                        </g>
                      </g>
                    </g>
                  </g>
                </g>
              </g>
            </g>
          </g>
        </g>
        <path id="Path_1017391" data-name="Path 1017391" d="M273.328,387.8c.01.122.015.244.015.367h0a4.54,4.54,0,0,1-4.527,4.527h-21.63a2.822,2.822,0,0,0-2.814,2.814h0a2.822,2.822,0,0,0,2.814,2.814h10.373a4.54,4.54,0,0,1,4.527,4.527h0a4.541,4.541,0,0,1-4.527,4.527H83.952a4.541,4.541,0,0,1-4.527-4.527h0a4.54,4.54,0,0,1,4.527-4.527H94.326a2.822,2.822,0,0,0,2.814-2.814h0a2.822,2.822,0,0,0-2.814-2.814H72.695a4.541,4.541,0,0,1-4.527-4.527h0c0-.123.005-.246.015-.367h-5.3a4.541,4.541,0,0,1-4.527-4.527h0a4.54,4.54,0,0,1,4.527-4.527h19.53a2.822,2.822,0,0,1,2.814-2.814H256.289a2.822,2.822,0,0,1,2.814,2.814h19.53a4.54,4.54,0,0,1,4.527,4.527h0a4.541,4.541,0,0,1-4.527,4.527Zm-206.789,21.9H79.925a2.822,2.822,0,0,1,2.814,2.814h0a2.822,2.822,0,0,1-2.814,2.814H66.539a2.822,2.822,0,0,1-2.814-2.814h0a2.822,2.822,0,0,1,2.814-2.814Zm195.048,0h13.386a2.822,2.822,0,0,1,2.814,2.814h0a2.822,2.822,0,0,1-2.814,2.814H261.586a2.822,2.822,0,0,1-2.814-2.814h0a2.822,2.822,0,0,1,2.814-2.814Zm16.948-17.131a2.822,2.822,0,0,0-2.814,2.814h0a2.822,2.822,0,0,0,2.814,2.814h20.85a2.822,2.822,0,0,0,2.814-2.814h0a2.822,2.822,0,0,0-2.814-2.814Zm-236.407,0a2.822,2.822,0,0,0-2.814,2.814h0a2.822,2.822,0,0,0,2.814,2.814h20.85a2.822,2.822,0,0,0,2.814-2.814h0a2.822,2.822,0,0,0-2.814-2.814Z" transform="translate(-39.313 -292.194)" fill="#918f8e" fill-rule="evenodd"/>
        <g id="Group_1183714" data-name="Group 1183714" transform="translate(25.049 25.193)">
          <g id="Group_1183709" data-name="Group 1183709" transform="translate(9.732)">
            <g id="Group_1183705" data-name="Group 1183705">
              <g id="Group_1183703" data-name="Group 1183703" transform="translate(0 15.815)">
                <path id="Path_1017392" data-name="Path 1017392" d="M157.066,312.474c-2.607,2.788-4.777,1.748-7.664.6-10.9-4.327-2.255-4.924-8.5-7.664-5.376-2.359-9.508-2.186-9.448-9.752.032-4.149,4.7-4.168.107-8.28-7.253-6.492-.636-9.785-1.175-13.471-.442-3.019-2.214-7.735,2.49-7.043,2.983.439,2.642,4.145,6.21,4.063,10.5-.241,3.674,10.72,9.788,10.5,4.153-.148,7.85,1.894,7.147,7.387-1.238,9.664,1.178,4.459,2.905,10.423A16.76,16.76,0,0,1,157.066,312.474Z" transform="translate(-128.138 -266.798)" fill="#3d9c13" fill-rule="evenodd"/>
                <path id="Path_1017393" data-name="Path 1017393" d="M154.519,314.735l-23.992-46.951c-1.6,1.117-.481,4.418-.143,6.726.54,3.686-6.077,6.978,1.175,13.471,4.594,4.112-.074,4.131-.107,8.28-.06,7.566,4.072,7.393,9.448,9.752,6.246,2.74-2.4,3.337,8.5,7.664C151.309,314.432,152.9,315.144,154.519,314.735Z" transform="translate(-128.138 -267.398)" fill="#88c506" fill-rule="evenodd"/>
              </g>
              <g id="Group_1183704" data-name="Group 1183704" transform="translate(12.241)">
                <path id="Path_1017394" data-name="Path 1017394" d="M182.948,287.485c-3.739,1.959-5.8-.1-8.612-2.584-10.624-9.372-.933-6.366-6.938-12.023-5.169-4.87-9.763-6.429-7.325-14.719,1.336-4.546,6.473-2.589,2.714-9.054-5.934-10.207,2.37-11.023,2.933-15.3.46-3.505-.007-9.439,4.946-6.686,3.141,1.746,1.6,5.675,5.55,7.1,11.61,4.181.675,13.337,7.462,15.688,4.61,1.6,8.033,5.407,5.538,11.145-4.391,10.1-.1,5.4-.076,12.685C189.159,278.945,186.68,284.649,182.948,287.485Z" transform="translate(-159.401 -226.41)" fill="#3d9c13" fill-rule="evenodd"/>
                <path id="Path_1017395" data-name="Path 1017395" d="M179.627,288.327l-11.641-61.759c-2.105.551-1.914,4.651-2.266,7.331-.562,4.279-8.867,5.1-2.933,15.3,3.759,6.465-1.378,4.508-2.714,9.054-2.438,8.29,2.156,9.849,7.325,14.719,6.005,5.657-3.685,2.65,6.938,12.023C176.2,286.636,177.724,288.093,179.627,288.327Z" transform="translate(-159.401 -226.506)" fill="#88c506" fill-rule="evenodd"/>
              </g>
            </g>
            <g id="Group_1183708" data-name="Group 1183708" transform="translate(150.427)">
              <g id="Group_1183706" data-name="Group 1183706" transform="translate(11.511 15.815)">
                <path id="Path_1017396" data-name="Path 1017396" d="M544.163,312.474c2.607,2.788,4.777,1.748,7.664.6,10.9-4.327,2.255-4.924,8.5-7.664,5.376-2.359,9.508-2.186,9.448-9.752-.032-4.149-4.7-4.168-.107-8.28,7.253-6.492.636-9.785,1.175-13.471.443-3.019,2.214-7.735-2.49-7.043-2.983.439-2.642,4.145-6.21,4.063-10.5-.241-3.674,10.72-9.788,10.5-4.152-.148-7.85,1.894-7.147,7.387,1.238,9.664-1.178,4.459-2.905,10.423A16.76,16.76,0,0,0,544.163,312.474Z" transform="translate(-541.705 -266.798)" fill="#3d9c13" fill-rule="evenodd"/>
                <path id="Path_1017397" data-name="Path 1017397" d="M554.49,314.735l23.992-46.951c1.6,1.117.481,4.418.143,6.726-.54,3.686,6.077,6.978-1.175,13.471-4.594,4.112.074,4.131.107,8.28.06,7.566-4.072,7.393-9.448,9.752-6.246,2.74,2.4,3.337-8.5,7.664C557.7,314.432,556.1,315.144,554.49,314.735Z" transform="translate(-549.484 -267.398)" fill="#88c506" fill-rule="evenodd"/>
              </g>
              <g id="Group_1183707" data-name="Group 1183707">
                <path id="Path_1017398" data-name="Path 1017398" d="M519.417,287.485c3.739,1.959,5.8-.1,8.612-2.584,10.623-9.372.933-6.366,6.938-12.023,5.169-4.87,9.763-6.429,7.325-14.719-1.336-4.546-6.473-2.589-2.714-9.054,5.934-10.207-2.37-11.023-2.933-15.3-.46-3.505.007-9.439-4.946-6.686-3.141,1.746-1.6,5.675-5.55,7.1-11.61,4.181-.675,13.337-7.462,15.688-4.61,1.6-8.033,5.407-5.538,11.145,4.391,10.1.1,5.4.076,12.685C513.206,278.945,515.685,284.649,519.417,287.485Z" transform="translate(-512.308 -226.41)" fill="#3d9c13" fill-rule="evenodd"/>
                <path id="Path_1017399" data-name="Path 1017399" d="M538.943,288.327l11.641-61.759c2.105.551,1.914,4.651,2.266,7.331.562,4.279,8.867,5.1,2.933,15.3-3.759,6.465,1.377,4.508,2.714,9.054,2.438,8.29-2.156,9.849-7.325,14.719-6.005,5.657,3.685,2.65-6.938,12.023C542.375,286.636,540.846,288.093,538.943,288.327Z" transform="translate(-528.514 -226.506)" fill="#88c506" fill-rule="evenodd"/>
              </g>
            </g>
          </g>
          <g id="Group_1183713" data-name="Group 1183713" transform="translate(0 43.227)">
            <g id="Group_1183712" data-name="Group 1183712">
              <g id="Group_1183710" data-name="Group 1183710">
                <path id="Path_1017400" data-name="Path 1017400" d="M151.949,358.762c-4.276-2.152-6.636-1.775-9.934-5.131-4.93-4.3-13.766-5.2-19.726-2.957-4.672,1.76.073,7.544-9.566,7.9-2.913.107-9.183,1.154-9.434,4.9-.126,1.872,2.829,1.162,4.678,1.157,15.208-.036,30.229-.653,45.459-.107,2.117.082,2.029-.328.915-3A4.542,4.542,0,0,0,151.949,358.762Z" transform="translate(-103.285 -344.519)" fill="#2f7d0e" fill-rule="evenodd"/>
                <path id="Path_1017401" data-name="Path 1017401" d="M235.752,346.885c-3.076-2.338-4.774-1.928-7.147-5.575a11.257,11.257,0,0,0-14.191-3.212c-3.361,1.912.053,8.2-6.882,8.581-2.1.117-6.606,1.253-6.787,5.319-.09,2.035,2.036,1.263,3.366,1.258,10.941-.039,21.747-.71,32.7-.116,1.523.089,1.46-.357.659-3.256A4.847,4.847,0,0,0,235.752,346.885Z" transform="translate(-162.581 -336.805)" fill="#8eca10" fill-rule="evenodd"/>
                <path id="Path_1017402" data-name="Path 1017402" d="M219.349,370.023c-4.182.291-8.341.255-12.691.54-3.037.2-27.252.942-27.911.207s.892-6.558,2.443-7.837c5.856-4.574,10.127.538,16.814-3.772,2.741-1.767,5.14-3.889,8.677-2.82a7.45,7.45,0,0,1,3.561,2.582c3.272,4.021,4.167,5.7,9.8,5.414,2.486-.124,4.581.123,6.6,1.758a3.072,3.072,0,0,1,1.327,2.762c-.089.952-4.185.666-5.4.765C221.466,369.711,220.442,369.865,219.349,370.023Z" transform="translate(-149.106 -348.516)" fill="#2c6e10" fill-rule="evenodd"/>
              </g>
              <g id="Group_1183711" data-name="Group 1183711" transform="translate(133.928)">
                <path id="Path_1017403" data-name="Path 1017403" d="M517.515,358.762c4.275-2.152,6.636-1.775,9.934-5.131,4.93-4.3,13.766-5.2,19.726-2.957,4.672,1.76-.073,7.544,9.566,7.9,2.913.107,9.183,1.154,9.434,4.9.126,1.872-2.829,1.162-4.678,1.157-15.208-.036-30.229-.653-45.459-.107-2.117.082-2.029-.328-.916-3A4.543,4.543,0,0,1,517.515,358.762Z" transform="translate(-487.319 -344.519)" fill="#2f7d0e" fill-rule="evenodd"/>
                <path id="Path_1017404" data-name="Path 1017404" d="M456.307,346.885c3.076-2.338,4.774-1.928,7.147-5.575a11.257,11.257,0,0,1,14.191-3.212c3.361,1.912-.053,8.2,6.882,8.581,2.1.117,6.606,1.253,6.787,5.319.09,2.035-2.036,1.263-3.366,1.258-10.941-.039-21.747-.71-32.7-.116-1.523.089-1.459-.357-.659-3.256A4.847,4.847,0,0,1,456.307,346.885Z" transform="translate(-450.619 -336.805)" fill="#8eca10" fill-rule="evenodd"/>
                <path id="Path_1017405" data-name="Path 1017405" d="M453.936,370.023c4.181.291,8.341.255,12.691.54,3.037.2,27.252.942,27.911.207s-.892-6.558-2.443-7.837c-5.856-4.574-10.127.538-16.814-3.772-2.741-1.767-5.14-3.889-8.677-2.82a7.453,7.453,0,0,0-3.561,2.582c-3.272,4.021-4.167,5.7-9.8,5.414-2.486-.124-4.581.123-6.595,1.758a3.072,3.072,0,0,0-1.327,2.762c.089.952,4.185.666,5.4.765C451.819,369.711,452.842,369.865,453.936,370.023Z" transform="translate(-445.319 -348.516)" fill="#2c6e10" fill-rule="evenodd"/>
              </g>
            </g>
            <path id="Path_1017406" data-name="Path 1017406" d="M343.626,361.411c-3.222.3-6.433.374-9.705.519a1.437,1.437,0,0,1-.16.634c-.442.654-9.99.55-18.673.285-8.683.265-18.23.369-18.672-.285a1.439,1.439,0,0,1-.16-.634c-3.272-.145-6.483-.221-9.705-.519-1.271-.244-2.462-.482-3.741-.621-1.411-.153-6.174.289-6.277-1.181a5.416,5.416,0,0,1,1.542-4.263c2.342-2.525,4.778-2.907,7.668-2.715,6.552.435,7.592-2.15,11.4-8.359a9.271,9.271,0,0,1,4.141-3.987c4.113-1.649,6.9,1.627,10.089,4.355a12.291,12.291,0,0,0,3.718,2.267,12.285,12.285,0,0,0,3.719-2.267c3.188-2.728,5.977-6,10.089-4.355a9.275,9.275,0,0,1,4.141,3.987c3.8,6.209,4.845,8.794,11.4,8.359,2.891-.191,5.326.19,7.668,2.715a5.415,5.415,0,0,1,1.542,4.263c-.1,1.47-4.867,1.029-6.277,1.181C346.088,360.929,344.9,361.167,343.626,361.411Z" transform="translate(-208.695 -338.651)" fill="#2c6e10" fill-rule="evenodd"/>
          </g>
        </g>
      </g>
      <g id="Group_1183755" data-name="Group 1183755" transform="translate(-11655.31 -3617.691)">
        <g id="Group_1183717" data-name="Group 1183717" transform="translate(0 43.453)">
          <g id="Group_1183716" data-name="Group 1183716" transform="translate(0 38.995)">
            <path id="Path_1017407" data-name="Path 1017407" d="M275.7,403.241c-.319.244-2.291,1.8-2.448,1.874-.174.085-4.057,1.094-4.354,1.132a6.789,6.789,0,0,0-1.6.244,2.857,2.857,0,0,0-1.474,2.208c-.089.608.517.445,1.039.451.785.01,8,.025,8.143-.05.218-.114.272-.532.6-.578.7-.1.607.036,1.159.441a2.337,2.337,0,0,0,1.235.2,12.706,12.706,0,0,0,2.173-.069,8,8,0,0,0,.3-3.17c0-.883.022-.61-.438-1.4l-.779-1.339Z" transform="translate(-265.817 -402.46)" fill="#2e364a" fill-rule="evenodd"/>
            <path id="Path_1017408" data-name="Path 1017408" d="M316.584,401.62c.307.282,2.2,2.066,2.355,2.159.17.1,4.037,1.427,4.337,1.486a6.551,6.551,0,0,1,1.607.362,3.072,3.072,0,0,1,1.346,2.456c.049.656-.554.444-1.083.417-.8-.039-8.108-.48-8.248-.569-.213-.135-.24-.586-.574-.657-.7-.148-.618,0-1.2.4a2.265,2.265,0,0,1-1.266.137,12.277,12.277,0,0,1-2.2-.212,9.038,9.038,0,0,1-.092-3.411c.057-.944.018-.654.537-1.47l.879-1.383Z" transform="translate(-293.58 -401.334)" fill="#2e364a" fill-rule="evenodd"/>
          </g>
          <path id="Path_1017409" data-name="Path 1017409" d="M288.607,304.857l-.917,19.564c-.356,5.064-.771,10.19-1.05,15.253-.041.744-.19,2.19.22,2.806.782,1.173,3.524,1.379,4.7.805,1.9-.931,1.98-2.188,2.164-4.151.529-5.633,1.124-11.273,1.692-16.9l.841-16.435.21-.607.689-.2.631.235.153.7-.305,18.507c-.309,5.458-.643,10.921-.947,16.378-.051.919.029,1.025.9,1.563a4.507,4.507,0,0,0,3.109.9c1.02,0,2.013-1.063,2.669-1.776.41-.444.235-.315.289-1.071.4-5.533.755-11.084,1.13-16.62l.459-9.86-.153-11.191-.726-.978-6.005-.039h-5.927l-3.023.235-.651.7Z" transform="translate(-278.449 -301.745)" fill="#333" fill-rule="evenodd"/>
        </g>
        <g id="Group_1183719" data-name="Group 1183719" transform="translate(59.224 43.453)">
          <g id="Group_1183718" data-name="Group 1183718" transform="translate(0 38.995)">
            <path id="Path_1017410" data-name="Path 1017410" d="M467.76,403.241c.319.244,2.291,1.8,2.448,1.874.174.085,4.057,1.094,4.354,1.132a6.789,6.789,0,0,1,1.6.244,2.856,2.856,0,0,1,1.474,2.208c.089.608-.517.445-1.039.451-.785.01-8,.025-8.143-.05-.218-.114-.272-.532-.6-.578-.7-.1-.607.036-1.159.441a2.336,2.336,0,0,1-1.235.2,12.707,12.707,0,0,1-2.173-.069,8,8,0,0,1-.3-3.17c0-.883-.022-.61.438-1.4l.779-1.339Z" transform="translate(-444.995 -402.46)" fill="#2e364a" fill-rule="evenodd"/>
            <path id="Path_1017411" data-name="Path 1017411" d="M426.714,401.62c-.307.282-2.2,2.066-2.355,2.159-.17.1-4.037,1.427-4.337,1.486a6.548,6.548,0,0,0-1.607.362,3.071,3.071,0,0,0-1.346,2.456c-.049.656.554.444,1.083.417.8-.039,8.108-.48,8.248-.569.213-.135.24-.586.574-.657.7-.148.618,0,1.2.4a2.265,2.265,0,0,0,1.266.137,12.276,12.276,0,0,0,2.2-.212,9.037,9.037,0,0,0,.092-3.411c-.057-.944-.018-.654-.538-1.47l-.879-1.383Z" transform="translate(-417.066 -401.334)" fill="#2e364a" fill-rule="evenodd"/>
          </g>
          <path id="Path_1017412" data-name="Path 1017412" d="M448.659,304.857l.917,19.564c.356,5.064.771,10.19,1.05,15.253.041.744.191,2.19-.22,2.806-.782,1.173-3.524,1.379-4.7.805-1.9-.931-1.98-2.188-2.164-4.151-.529-5.633-1.124-11.273-1.692-16.9l-.841-16.435-.21-.607-.689-.2-.631.235-.153.7.305,18.507c.309,5.458.643,10.921.947,16.378.051.919-.029,1.025-.9,1.563a4.507,4.507,0,0,1-3.109.9c-1.02,0-2.013-1.063-2.669-1.776-.41-.444-.235-.315-.289-1.071-.4-5.533-.754-11.084-1.13-16.62l-.459-9.86.153-11.191.727-.978,6.005-.039h5.927l3.023.235.651.7Z" transform="translate(-426.165 -301.745)" fill="#333" fill-rule="evenodd"/>
        </g>
        <g id="Group_1183732" data-name="Group 1183732" transform="translate(44.258 0.281)">
          <g id="Group_1183721" data-name="Group 1183721" transform="translate(20.537)">
            <rect id="Rectangle_457490" data-name="Rectangle 457490" width="4.227" height="6.632" transform="translate(6.539 9.382)" fill="#ad715c"/>
            <g id="Group_1183720" data-name="Group 1183720">
              <path id="Path_1017413" data-name="Path 1017413" d="M435.767,199.756l8.615-.714.1,1.257.915-.076a.268.268,0,0,1,.289.244l.123,1.487a.535.535,0,0,1-.489.578l-.648.054.177,2.135a4.335,4.335,0,0,1-3.951,4.664h0a4.334,4.334,0,0,1-4.664-3.95Z" transform="translate(-434.015 -196.085)" fill="#e09377" fill-rule="evenodd"/>
              <path id="Path_1017414" data-name="Path 1017414" d="M440.291,195.883c-1.117.3-6.2,1.642-7.777,1.642-.822-.071-1.092-.528-1.185-1.314a3.224,3.224,0,0,1,.3-2.014c.725-1.186,1.515-1.418,2.76-1.9a13.158,13.158,0,0,1,3.136-.777,5.655,5.655,0,0,1,2.394.208,5.819,5.819,0,0,1,2.422,1.979,4.8,4.8,0,0,1,.672,1.887,7.73,7.73,0,0,1-1.49.171,20.822,20.822,0,0,1,.428,2.226l.648-.054a.537.537,0,0,0,.485-.45,2.918,2.918,0,0,1-1.032,3.873,4.32,4.32,0,0,1-8.043,1.158c.1-.034.206-.07.3-.107.6-.228-.1-1.379,1.4-2.222a3.6,3.6,0,0,1,2.827-.387c.764.328.638.685,1.58.62.686-.048.689.039.879-.6a6.06,6.06,0,0,0-.066-1.465A18.918,18.918,0,0,0,440.291,195.883Z" transform="translate(-431.292 -191.489)" fill="#2e364a" fill-rule="evenodd"/>
            </g>
          </g>
          <g id="Group_1183731" data-name="Group 1183731" transform="translate(0 13.357)">
            <g id="Group_1183728" data-name="Group 1183728" transform="translate(19.677)">
              <g id="Group_1183722" data-name="Group 1183722" transform="translate(0 1.286)">
                <rect id="Rectangle_457491" data-name="Rectangle 457491" width="8.797" height="26.697" transform="translate(4.83 2.656)" fill="#f5f8ff"/>
                <path id="Path_1017415" data-name="Path 1017415" d="M456.636,229.013l1.2.161,1.135.152a12,12,0,0,1,1.443.224c.169.1.928.879,1.11,1.06a4.993,4.993,0,0,1,.938,1.087,13.782,13.782,0,0,1,.218,1.821c.027.324.051.648.079.971q.625,6.761,1.249,13.522c.253,2.73.536,5.485.763,8.213.182,2.192.082,3.167-1.269,4.924-1.136,1.477-4.068,1.32-5.774,1.2a3.99,3.99,0,0,1-3.843-3.994c-.229-9.078-.357-18.191-.536-27.274Z" transform="translate(-443.851 -228.963)" fill="#3b4866" fill-rule="evenodd"/>
                <path id="Path_1017416" data-name="Path 1017416" d="M437.863,230.919l-1.558-2.033s-3.558.232-3.373.247c.033.135-1.479.864-1.7,1.113a2.88,2.88,0,0,0-.76,1.525c-.052.632-.061,1.361-.094,2.007-.133,2.627-.287,5.252-.43,7.878-.3,5.481-.594,10.963-.83,16.447-.083,1.928-.055,3.111,1.834,4.042a9.413,9.413,0,0,0,4.319.13,4.341,4.341,0,0,0,2.446-2.822c.249-.713.123-12.426.125-14.209q0-4.092.01-8.185,0-2.865.007-5.73Z" transform="translate(-429.096 -228.886)" fill="#3b4866" fill-rule="evenodd"/>
              </g>
              <g id="Group_1183727" data-name="Group 1183727" transform="translate(3.56)">
                <g id="Group_1183723" data-name="Group 1183723" transform="translate(0 1.195)">
                  <path id="Path_1017417" data-name="Path 1017417" d="M447.644,228.8l2.094-.143.574.755.153,5.116-.4.42-1.721.02L450.5,236.3l.172.67-6.558,12.258-.841.153-5.01-12.7.153-.536,1.453-.956-1.281.038-.4-.364.477-6.082.4-.077,3.9.04-.209,0L444,230.014l1.218-1.241Z" transform="translate(-438.189 -228.654)" fill="#7f8eb0" fill-rule="evenodd"/>
                  <path id="Path_1017418" data-name="Path 1017418" d="M451.81,228.912l-1.329,8.214-2.066,6.387-.764.306-1.568-5.775-.918-6.541-.006-2.659,1.838.033,1.243,1.253,1.219-1.242Z" transform="translate(-442.43 -228.77)" fill="#b1bfc2" fill-rule="evenodd"/>
                </g>
                <g id="Group_1183726" data-name="Group 1183726" transform="translate(1.573)">
                  <g id="Group_1183724" data-name="Group 1183724" transform="translate(1.444 2.615)">
                    <path id="Path_1017419" data-name="Path 1017419" d="M450.774,232.28l1.257,1.47-.334.78-2.02.016-.276-.444.211-.352Z" transform="translate(-448.027 -232.28)" fill="#900" fill-rule="evenodd"/>
                    <path id="Path_1017420" data-name="Path 1017420" d="M449.562,238.025l.858,16.875-1.881,2.434-.689.031-1.958-3.091,1.65-16.233Z" transform="translate(-445.892 -235.775)" fill="#c30" fill-rule="evenodd"/>
                  </g>
                  <g id="Group_1183725" data-name="Group 1183725">
                    <path id="Path_1017421" data-name="Path 1017421" d="M457.192,226.978l-.061-.811-1.667-.566-2.51,2.555-.049.062,1.258,1.468,1.285.092Z" transform="translate(-448.715 -225.601)" fill="#fff" fill-rule="evenodd"/>
                    <path id="Path_1017422" data-name="Path 1017422" d="M442.2,226.978l.061-.811,1.668-.566,2.51,2.555-1.209,1.53-1.285.092Z" transform="translate(-442.205 -225.601)" fill="#fff" fill-rule="evenodd"/>
                  </g>
                </g>
              </g>
            </g>
            <g id="Group_1183730" data-name="Group 1183730" transform="translate(0 2.659)">
              <g id="Group_1183729" data-name="Group 1183729" transform="translate(4.841)">
                <path id="Path_1017423" data-name="Path 1017423" d="M407.549,232.957l-1.148,1.014-.765,1.453-4.972,10.039-1.3.65c-.819.874-7.9,8.32-7.961,8.6a5.7,5.7,0,0,0,.338,1.2,6.34,6.34,0,0,0,2.392,1.638,5.25,5.25,0,0,0,1.607-.524c1.083-.751,2.34-1.777,3.417-2.592l5.829-4.413,2.028-4.954,1.491-12.671Z" transform="translate(-391.326 -232.391)" fill="#323e59" fill-rule="evenodd"/>
                <path id="Path_1017424" data-name="Path 1017424" d="M391.769,289.071a1.7,1.7,0,1,1-.187,2.261A1.609,1.609,0,0,1,391.769,289.071Z" transform="translate(-391.209 -266.708)" fill="#2b3140" fill-rule="evenodd"/>
              </g>
              <path id="Path_1017425" data-name="Path 1017425" d="M379.341,293.3a3.222,3.222,0,0,0,1.657.256,27.55,27.55,0,0,0,3.064.057,10.872,10.872,0,0,0,2.021-1.406c.4-.715.5-.857.166-1.594-.219-.485-1.871-1.161-2.405-1.256a15.444,15.444,0,0,0-3.191-.045c-.056.662-.051.853.641,1.083.243.081.525.05.563.347a9.31,9.31,0,0,0-2.229.7,2.376,2.376,0,0,0-.743,1.042c-.1.222,0,.248.171.515C379.178,293.192,379.15,293.185,379.341,293.3Z" transform="translate(-378.845 -266.989)" fill="#e09377" fill-rule="evenodd"/>
            </g>
          </g>
        </g>
        <g id="Group_1183737" data-name="Group 1183737" transform="translate(13.681 34.703)">
          <g id="Group_1183734" data-name="Group 1183734" transform="translate(0 13.642)">
            <g id="Group_1183733" data-name="Group 1183733">
              <path id="Path_1017426" data-name="Path 1017426" d="M321.024,318.359l3.955-4.119.424.122,1.751,2.239-.323,1-3.424,3.732c.4,3.306-2,8.7-6.35,13.654a34.3,34.3,0,0,1-4.149,4.006l.159-2.384a26.019,26.019,0,0,0,2.754-2.709c4.228-4.814,5.994-10.178,3.941-11.982s-7.146.636-11.376,5.449-5.993,10.178-3.941,11.982a2.451,2.451,0,0,0,1.36.569l-.174,2.975a4.216,4.216,0,0,1-3.733-.645c-2.736-2.4-.385-9.553,5.252-15.968C312.041,320.715,317.8,317.531,321.024,318.359Z" transform="translate(-300.756 -314.24)" fill="#ccc" fill-rule="evenodd"/>
              <path id="Path_1017427" data-name="Path 1017427" d="M318.345,338.658a34.3,34.3,0,0,1-4.149,4.006l-.146,2.2a39.539,39.539,0,0,0,5.6-5.058c4.51-5.134,6.918-10.739,6.3-14l3.084-3.362.323-1-.913-1.169-.323,1-2.786,3.037L324.7,325a6.6,6.6,0,0,1,.035,1.068c-.143,3.328-2.474,8.134-6.386,12.587Zm-11.427,7.906a4.216,4.216,0,0,1-3.733-.645,2.808,2.808,0,0,1-.312-.321,4.228,4.228,0,0,0,.279.415,4.5,4.5,0,0,0,3.688,1.892Z" transform="translate(-302.044 -317.909)" fill="#8f9fa3" fill-rule="evenodd"/>
              <path id="Path_1017428" data-name="Path 1017428" d="M309.149,350.584c-.082-2.773,1.886-7.005,5.318-10.911,3.3-3.754,7.071-6.206,9.811-6.634-.037-.038-.076-.074-.115-.109-2.053-1.8-7.146.636-11.376,5.449s-5.994,10.177-3.941,11.981A2.088,2.088,0,0,0,309.149,350.584Z" transform="translate(-305.157 -325.25)" fill="#8f9fa3" fill-rule="evenodd"/>
            </g>
            <path id="Path_1017429" data-name="Path 1017429" d="M356.38,320.812a1.153,1.153,0,0,1,1.225-1.06.926.926,0,0,1,.175.046l.824-1.024.365-.123.4.547,0,.456-.92,1.029a1.4,1.4,0,0,1,0,.453,1.061,1.061,0,1,1-2.066-.324Z" transform="translate(-334.589 -316.924)" fill="#333" fill-rule="evenodd"/>
          </g>
          <g id="Group_1183735" data-name="Group 1183735" transform="translate(46.35)">
            <path id="Path_1017430" data-name="Path 1017430" d="M432.075,316.659l2.532-1.276.136-1.057-1.527-4.9c1.792-2.858,1.928-8.833.079-15.255-2.4-8.312-7.211-14.223-10.757-13.2s-4.478,8.588-2.083,16.9a31.211,31.211,0,0,0,3.975,8.793l-.183-3.938a24.947,24.947,0,0,1-2.19-5.317c-1.8-6.238-1.1-11.914,1.564-12.682s6.274,3.669,8.071,9.907c1.366,4.743,1.288,9.163,0,11.345l.095,5.75Q431.931,314.194,432.075,316.659Z" transform="translate(-419.128 -280.286)" fill="#ccc" fill-rule="evenodd"/>
            <path id="Path_1017431" data-name="Path 1017431" d="M437.936,293.286c-2.4-8.312-7.211-14.223-10.756-13.2a2.976,2.976,0,0,0-.424.159,4.247,4.247,0,0,1,.435-.259c6.373-3.321,11.077,8.381,12.438,12.814,1.917,6.653,1.7,12.829-.278,15.552l1.374,4.413-.136,1.057-1.341.676.136-1.057-1.242-3.986-.284-.912a6.658,6.658,0,0,0,.494-.963C439.658,304.467,439.6,299.057,437.936,293.286Z" transform="translate(-423.769 -279.399)" fill="#8f9fa3" fill-rule="evenodd"/>
            <path id="Path_1017432" data-name="Path 1017432" d="M427,290.558c-1.273,2.506-1.3,7.234.161,12.294l.078.263-.055,4.032.069,1.484a24.946,24.946,0,0,1-2.19-5.317c-1.8-6.238-1.1-11.914,1.564-12.682A2.135,2.135,0,0,1,427,290.558Z" transform="translate(-422.133 -286.189)" fill="#8f9fa3" fill-rule="evenodd"/>
            <path id="Path_1017433" data-name="Path 1017433" d="M451.557,360.467l.309,1.275.281.271.6-.33.195-.419-.4-1.339a1.454,1.454,0,0,0,.2-.415,1.171,1.171,0,0,0-.665-1.5.944.944,0,0,0-.632.041l.01.6Z" transform="translate(-438.79 -327.206)" fill="#333" fill-rule="evenodd"/>
          </g>
          <g id="Group_1183736" data-name="Group 1183736" transform="translate(24.528 14.954)">
            <path id="Path_1017434" data-name="Path 1017434" d="M375.3,321.328l.085-1.435a2.454,2.454,0,0,1,2.587-2.3l6.016.355a2.454,2.454,0,0,1,2.3,2.587l-.085,1.435a2.455,2.455,0,0,1-2.587,2.3l-6.016-.356a2.455,2.455,0,0,1-2.3-2.588Zm1.709.1a.736.736,0,0,0,.69.776l6.016.356a.736.736,0,0,0,.776-.69l.085-1.435a.736.736,0,0,0-.69-.776l-6.016-.356a.736.736,0,0,0-.776.69Z" transform="translate(-370.636 -317.59)" fill="#919ea1" fill-rule="evenodd"/>
            <path id="Path_1017435" data-name="Path 1017435" d="M363.409,321.3h0a1.319,1.319,0,0,1,1.479-1.128l5.215.7a1.318,1.318,0,0,1,1.128,1.479h0a1.318,1.318,0,0,1-1.479,1.128l-5.215-.7A1.319,1.319,0,0,1,363.409,321.3Z" transform="translate(-363.397 -319.154)" fill="#b1bfc2" fill-rule="evenodd"/>
            <path id="Path_1017436" data-name="Path 1017436" d="M400.735,332.965l1.038-.747a2.183,2.183,0,0,1,3.039.495l3.131,4.349a2.183,2.183,0,0,1-.494,3.038l-1.038.747a2.183,2.183,0,0,1-3.038-.495L400.241,336a2.183,2.183,0,0,1,.494-3.038Zm.89,1.236a.655.655,0,0,0-.148.912l3.131,4.349a.655.655,0,0,0,.912.148l1.037-.747a.654.654,0,0,0,.148-.912l-3.131-4.349a.655.655,0,0,0-.912-.148Z" transform="translate(-385.566 -326.242)" fill="#919ea1" fill-rule="evenodd"/>
            <path id="Path_1017437" data-name="Path 1017437" d="M394.5,324.321h0a1.319,1.319,0,0,1,1.858.082l3.554,3.881a1.32,1.32,0,0,1-.082,1.859h0a1.319,1.319,0,0,1-1.858-.082l-3.554-3.88A1.32,1.32,0,0,1,394.5,324.321Z" transform="translate(-382.064 -321.476)" fill="#b1bfc2" fill-rule="evenodd"/>
            <path id="Path_1017438" data-name="Path 1017438" d="M419.359,352.749l.856-.951a2.183,2.183,0,0,1,3.074-.161l1.1.986.056,1.208.064.95-2.235-2.012a.654.654,0,0,0-.923.048l-.855.95a.654.654,0,0,0,.048.923l3.984,3.586a.647.647,0,0,0,.224.131l.1,1.555a2.165,2.165,0,0,1-1.345-.554l-3.984-3.586A2.182,2.182,0,0,1,419.359,352.749Z" transform="translate(-397.108 -337.967)" fill="#919ea1" fill-rule="evenodd"/>
            <path id="Path_1017439" data-name="Path 1017439" d="M414.1,347.786h0a.983.983,0,0,1,1.387.061l2.652,2.9a.983.983,0,0,1-.061,1.387h0a.984.984,0,0,1-1.387-.061l-2.652-2.9A.984.984,0,0,1,414.1,347.786Z" transform="translate(-394.053 -335.806)" fill="#b1bfc2" fill-rule="evenodd"/>
          </g>
        </g>
        <g id="Group_1183741" data-name="Group 1183741" transform="translate(25.487 16.863)">
          <g id="Group_1183739" data-name="Group 1183739" transform="translate(9.328 19.782)">
            <path id="Path_1017440" data-name="Path 1017440" d="M366.855,300.478a6.068,6.068,0,0,1-12.125,0c.237-3.518,2.977-8.06,5.149-10.817.451-.572,1.854-2.325,2.47-1.1.775,1.548,1.43,3.221,2.142,4.8a22.252,22.252,0,0,1,2.363,7.108Zm-4.8-15.282c.444-1.083.387-.939,1.721-.558.745.213.647.118,1.108.687s-.673.671-1.128,1.113c-.764.741-.544.863-1.794.513A5.431,5.431,0,0,1,362.052,285.2Z" transform="translate(-354.73 -284.357)" fill="#edc84e" fill-rule="evenodd"/>
            <g id="Group_1183738" data-name="Group 1183738" transform="translate(1.453 11.386)">
              <path id="Path_1017441" data-name="Path 1017441" d="M362.467,313.473a4.609,4.609,0,1,0,5.155,3.99A4.609,4.609,0,0,0,362.467,313.473Z" transform="translate(-358.44 -313.435)" fill="#fce38f" fill-rule="evenodd"/>
              <path id="Path_1017442" data-name="Path 1017442" d="M365.934,321.113l.174-.043a.2.2,0,0,1,.238.132,1.469,1.469,0,0,0,.225.448,1.072,1.072,0,0,0,.507.349,1.406,1.406,0,0,0,.413.077l-.263-1.893a3.451,3.451,0,0,1-.826-.2,1.308,1.308,0,0,1-.544-.426,1.373,1.373,0,0,1-.248-.634,1.523,1.523,0,0,1,.089-.773,1.259,1.259,0,0,1,.488-.6,1.8,1.8,0,0,1,.638-.266l-.083-.6a.2.2,0,1,1,.4-.055l.084.6a1.848,1.848,0,0,1,.663.089,1.339,1.339,0,0,1,.661.475,1.747,1.747,0,0,1,.289.6.2.2,0,0,1-.148.248l-.183.043a.2.2,0,0,1-.235-.131,1.055,1.055,0,0,0-.364-.536.965.965,0,0,0-.6-.164l.231,1.669a4.587,4.587,0,0,1,.853.174,1.431,1.431,0,0,1,.65.456,1.484,1.484,0,0,1,.289.72,1.625,1.625,0,0,1-.094.819,1.441,1.441,0,0,1-.506.659,1.78,1.78,0,0,1-.755.313l.059.424a.2.2,0,0,1-.4.055l-.061-.439a2,2,0,0,1-.724-.1,1.51,1.51,0,0,1-.73-.537,1.946,1.946,0,0,1-.336-.715.192.192,0,0,1,.023-.151.2.2,0,0,1,.124-.091Zm1.957.931a1.357,1.357,0,0,0,.477-.184.842.842,0,0,0,.4-.849.777.777,0,0,0-.182-.415.929.929,0,0,0-.446-.254,4.7,4.7,0,0,0-.5-.1l.25,1.8Zm-.979-4.142a.984.984,0,0,0-.571.308.75.75,0,0,0-.168.593.664.664,0,0,0,.239.443,1.7,1.7,0,0,0,.717.22Z" transform="translate(-362.793 -315.274)" fill="#ad715c" fill-rule="evenodd"/>
            </g>
          </g>
          <g id="Group_1183740" data-name="Group 1183740">
            <path id="Path_1017443" data-name="Path 1017443" d="M330.908,233.837l1.147,1.014.766,1.453,4.971,10.039,1.3.65c.82.874,7.9,8.32,7.961,8.6a5.679,5.679,0,0,1-.339,1.2,6.339,6.339,0,0,1-2.391,1.638,5.245,5.245,0,0,1-1.607-.523c-1.083-.751-2.34-1.777-3.417-2.592L333.47,250.9l-2.028-4.954Z" transform="translate(-330.908 -233.837)" fill="#323e59" fill-rule="evenodd"/>
            <path id="Path_1017444" data-name="Path 1017444" d="M370.062,290.056c.4.57.464.524.156,1.231a9.5,9.5,0,0,1-1.5,1.8,4.582,4.582,0,0,1-1.071-.049,18.756,18.756,0,0,1-2.017-1.68,7.192,7.192,0,0,1-.311-1.042,10.464,10.464,0,0,1,.828-1.288,1.174,1.174,0,0,1,1.6-.314,1.256,1.256,0,0,0,.151.09c.35.1.468-.15,1.184.215C369.962,289.472,369.557,289.336,370.062,290.056Z" transform="translate(-351.844 -267.113)" fill="#fc9" fill-rule="evenodd"/>
          </g>
        </g>
        <g id="Group_1183752" data-name="Group 1183752" transform="translate(1.625 0)">
          <g id="Group_1183742" data-name="Group 1183742" transform="translate(11.08)">
            <rect id="Rectangle_457492" data-name="Rectangle 457492" width="4.131" height="5.232" transform="translate(3.468 10.96)" fill="#e09377"/>
            <path id="Path_1017445" data-name="Path 1017445" d="M301.05,202.181h9v3.963a3.974,3.974,0,0,1-3.963,3.963h-1.071a3.974,3.974,0,0,1-3.963-3.963V204.9h-.643a.384.384,0,0,1-.383-.383v-1.407a.384.384,0,0,1,.383-.383h.643Z" transform="translate(-299.335 -197.714)" fill="#fc9" fill-rule="evenodd"/>
            <path id="Path_1017446" data-name="Path 1017446" d="M299.625,200.961h.769a3.928,3.928,0,0,1-.415-1.759v-1.239h-.643a.384.384,0,0,1-.383-.383v-1.407a.384.384,0,0,1,.383-.383h.643v1.273a.2.2,0,0,0,.2.2h.617a.2.2,0,0,0,.2-.2V196h7.1a2.362,2.362,0,0,0,2.356-2.356v-2.876H302.61c-2.056,0-4.346,1.048-4.346,3.412V199.6A1.365,1.365,0,0,0,299.625,200.961Z" transform="translate(-298.264 -190.772)" fill="#3b4866" fill-rule="evenodd"/>
          </g>
          <g id="Group_1183751" data-name="Group 1183751" transform="translate(0 13.638)">
            <g id="Group_1183743" data-name="Group 1183743" transform="translate(0 3.444)">
              <path id="Path_1017447" data-name="Path 1017447" d="M276.438,322.888c-.178.675-.1.691-.843.912a9.494,9.494,0,0,1-2.347.008,4.573,4.573,0,0,1-.651-.851,18.757,18.757,0,0,1-.01-2.625,7.135,7.135,0,0,1,.6-.907,24,24,0,0,1,2.674-.282c.013.145.115,1.222.142,1.285.146.336.416.263.6,1.045C276.82,322.437,276.664,322.039,276.438,322.888Z" transform="translate(-271.536 -285.959)" fill="#fc9" fill-rule="evenodd"/>
              <path id="Path_1017448" data-name="Path 1017448" d="M277.773,234.4l-7.424,14.586-.383,2.219q.031,2.184.063,4.369l.061,4.26c.014.985-.006,7.109.174,7.485.425.883.969.83,1.892.944.794.1,2.517.314,2.869-.656.361-.993.255-5.9.266-7.268q.033-4.537.067-9.074l0-.252,2.831-6.579.612-4.819-.153-3.939Z" transform="translate(-269.966 -234.396)" fill="#323e59" fill-rule="evenodd"/>
            </g>
            <g id="Group_1183750" data-name="Group 1183750" transform="translate(5)">
              <g id="Group_1183744" data-name="Group 1183744" transform="translate(0 1.286)">
                <rect id="Rectangle_457493" data-name="Rectangle 457493" width="8.797" height="26.697" transform="translate(7.359 2.656)" fill="#f5f8ff"/>
                <path id="Path_1017449" data-name="Path 1017449" d="M290.936,229.013l-1.2.161-1.136.152a12.01,12.01,0,0,0-1.443.224c-.169.1-.928.879-1.11,1.06a4.983,4.983,0,0,0-.938,1.087,13.721,13.721,0,0,0-.218,1.821c-.027.324-.051.648-.079.971q-.625,6.761-1.249,13.522c-.253,2.73-.536,5.485-.763,8.213-.182,2.192-.082,3.167,1.269,4.924,1.136,1.477,4.068,1.32,5.774,1.2a3.99,3.99,0,0,0,3.843-3.994c.229-9.078.357-18.191.536-27.274Z" transform="translate(-282.736 -228.963)" fill="#3b4866" fill-rule="evenodd"/>
                <path id="Path_1017450" data-name="Path 1017450" d="M313.925,230.919l1.558-2.033s3.558.232,3.373.247c-.033.135,1.479.864,1.7,1.113a2.88,2.88,0,0,1,.76,1.525c.052.632.061,1.361.094,2.007.133,2.627.287,5.252.43,7.878.3,5.481.594,10.963.83,16.447.083,1.928.055,3.111-1.834,4.042a9.416,9.416,0,0,1-4.32.13,4.34,4.34,0,0,1-2.445-2.822c-.249-.713-.123-12.426-.125-14.209q0-4.092-.01-8.185,0-2.865-.007-5.73Z" transform="translate(-301.705 -228.886)" fill="#3b4866" fill-rule="evenodd"/>
              </g>
              <g id="Group_1183749" data-name="Group 1183749" transform="translate(4.939)">
                <g id="Group_1183745" data-name="Group 1183745" transform="translate(0 1.195)">
                  <path id="Path_1017451" data-name="Path 1017451" d="M298.381,228.8l-2.094-.143-.574.755-.153,5.116.4.42,1.722.02-2.161,1.339-.172.67,6.558,12.258.841.153,5.011-12.7-.153-.536-1.454-.956,1.281.038.4-.364-.478-6.082-.4-.077-3.9.04.209,0-1.244,1.266-1.218-1.241Z" transform="translate(-295.35 -228.654)" fill="#7f8eb0" fill-rule="evenodd"/>
                  <path id="Path_1017452" data-name="Path 1017452" d="M303.282,228.912l1.329,8.214,2.066,6.387.765.306,1.568-5.775.918-6.541.006-2.659-1.838.033-1.243,1.253-1.22-1.242Z" transform="translate(-300.176 -228.77)" fill="#b1bfc2" fill-rule="evenodd"/>
                </g>
                <g id="Group_1183748" data-name="Group 1183748" transform="translate(2.437)">
                  <g id="Group_1183746" data-name="Group 1183746" transform="translate(2.505 2.615)">
                    <path id="Path_1017453" data-name="Path 1017453" d="M310.568,232.28l-1.257,1.47.334.78,2.02.016.276-.444-.211-.352Z" transform="translate(-308.787 -232.28)" fill="#900" fill-rule="evenodd"/>
                    <path id="Path_1017454" data-name="Path 1017454" d="M308.83,238.025l-.858,16.875,1.881,2.434.688.031,1.958-3.091-1.65-16.233Z" transform="translate(-307.972 -235.775)" fill="#c30" fill-rule="evenodd"/>
                  </g>
                  <g id="Group_1183747" data-name="Group 1183747">
                    <path id="Path_1017455" data-name="Path 1017455" d="M301.574,226.978l.061-.811,1.668-.566,2.51,2.555.049.062-1.258,1.468-1.285.092Z" transform="translate(-301.574 -225.601)" fill="#fff" fill-rule="evenodd"/>
                    <path id="Path_1017456" data-name="Path 1017456" d="M316.637,226.978l-.061-.811-1.668-.566-2.51,2.555,1.209,1.53,1.286.092Z" transform="translate(-308.16 -225.601)" fill="#fff" fill-rule="evenodd"/>
                  </g>
                </g>
              </g>
            </g>
          </g>
        </g>
        <g id="Group_1183754" data-name="Group 1183754" transform="translate(70.161 17.658)">
          <path id="Path_1017457" data-name="Path 1017457" d="M465.039,235.867l6.035,13.107.23,2.065-.766,1.3-9.563,7.076-1.53.191-1.607-.842-.306-1.683.229-1.262,8.325-8.66Z" transform="translate(-452.626 -235.867)" fill="#323e59" fill-rule="evenodd"/>
          <g id="Group_1183753" data-name="Group 1183753" transform="translate(0 20.724)">
            <path id="Path_1017458" data-name="Path 1017458" d="M457.924,289.071a1.7,1.7,0,1,1-.188,2.261A1.609,1.609,0,0,1,457.924,289.071Z" transform="translate(-452.523 -288.793)" fill="#2b3140" fill-rule="evenodd"/>
            <path id="Path_1017459" data-name="Path 1017459" d="M445.5,293.3a3.221,3.221,0,0,0,1.657.256,27.539,27.539,0,0,0,3.064.057,10.893,10.893,0,0,0,2.022-1.406c.4-.715.5-.857.166-1.594-.219-.485-1.871-1.161-2.406-1.256a15.441,15.441,0,0,0-3.191-.045c-.057.662-.052.853.641,1.083.243.081.525.05.562.347a9.307,9.307,0,0,0-2.229.7,2.376,2.376,0,0,0-.743,1.042c-.1.222,0,.248.171.515C445.333,293.192,445.306,293.185,445.5,293.3Z" transform="translate(-445 -289.074)" fill="#e09377" fill-rule="evenodd"/>
          </g>
        </g>
      </g>
      <g id="Group_1183778" data-name="Group 1183778" transform="translate(-11694.231 -3612.67)">
        <g id="Group_1183768" data-name="Group 1183768" transform="translate(0 60.269)">
          <g id="Group_1183759" data-name="Group 1183759" transform="translate(9.713)">
            <g id="Group_1183757" data-name="Group 1183757">
              <g id="Group_1183756" data-name="Group 1183756">
                <path id="Path_1017460" data-name="Path 1017460" d="M204.793,366.19c4.793,1.3,9.06,6.406,9.06,10.374,0,4.461-1.931,6.574-4.878,8.356a.973.973,0,0,1-.525.147H196.627a.969.969,0,0,1-.525-.147c-2.947-1.782-4.878-3.9-4.878-8.356,0-3.968,4.267-9.074,9.06-10.374a1,1,0,0,0,.75-.98v-1.78h3.011v1.78A1,1,0,0,0,204.793,366.19Z" transform="translate(-191.223 -361.113)" fill="#edc84e" fill-rule="evenodd"/>
                <path id="Path_1017461" data-name="Path 1017461" d="M213.616,357.514h5.093c.166.986-.573,1.582-1.042,2.316h-3.011C213.7,359.157,213.963,358.286,213.616,357.514Z" transform="translate(-204.848 -357.514)" fill="#edc84e" fill-rule="evenodd"/>
              </g>
              <path id="Path_1017462" data-name="Path 1017462" d="M214.916,364.61h3.7a.309.309,0,0,1,.309.309v1.335a.309.309,0,0,1-.309.309h-3.7a.309.309,0,0,1-.309-.309v-1.335A.309.309,0,0,1,214.916,364.61Z" transform="translate(-205.451 -361.831)" fill="#3b4866" fill-rule="evenodd"/>
            </g>
            <g id="Group_1183758" data-name="Group 1183758" transform="translate(4.916 9.631)">
              <path id="Path_1017463" data-name="Path 1017463" d="M210.176,382.111a6.4,6.4,0,1,0,6.4,6.4A6.4,6.4,0,0,0,210.176,382.111Z" transform="translate(-203.777 -382.111)" fill="#fce38f" fill-rule="evenodd"/>
              <path id="Path_1017464" data-name="Path 1017464" d="M214.024,392.426l.247-.029a.277.277,0,0,1,.305.224,2.038,2.038,0,0,0,.23.655,1.487,1.487,0,0,0,.637.57,1.95,1.95,0,0,0,.555.179l-.029-2.653a4.789,4.789,0,0,1-1.1-.416,1.818,1.818,0,0,1-.674-.682,1.9,1.9,0,0,1-.231-.917,2.117,2.117,0,0,1,.258-1.049,1.747,1.747,0,0,1,.779-.747,2.521,2.521,0,0,1,.926-.255l-.009-.838a.278.278,0,0,1,.556-.006l.009.845a2.552,2.552,0,0,1,.9.239,1.858,1.858,0,0,1,.827.769,2.422,2.422,0,0,1,.294.872.277.277,0,0,1-.247.315l-.26.027a.277.277,0,0,1-.3-.221,1.47,1.47,0,0,0-.408-.8,1.337,1.337,0,0,0-.8-.331l.026,2.339a6.335,6.335,0,0,1,1.143.39,1.99,1.99,0,0,1,.815.742,2.063,2.063,0,0,1,.271,1.044,2.26,2.26,0,0,1-.274,1.11,2,2,0,0,1-.813.818,2.461,2.461,0,0,1-1.095.3l.007.594a.278.278,0,0,1-.556.007l-.006-.615a2.789,2.789,0,0,1-.98-.259,2.1,2.1,0,0,1-.91-.868,2.7,2.7,0,0,1-.338-1.044.278.278,0,0,1,.243-.308Zm2.531,1.625a1.885,1.885,0,0,0,.689-.17,1.168,1.168,0,0,0,.706-1.1,1.076,1.076,0,0,0-.177-.6,1.291,1.291,0,0,0-.57-.428,6.436,6.436,0,0,0-.676-.222l.027,2.522Zm-.621-5.875a1.364,1.364,0,0,0-.84.324,1.039,1.039,0,0,0-.336.787.914.914,0,0,0,.251.652,2.367,2.367,0,0,0,.95.429Z" transform="translate(-209.862 -384.592)" fill="#ad715c" fill-rule="evenodd"/>
            </g>
          </g>
          <g id="Group_1183763" data-name="Group 1183763" transform="translate(0 4.512)">
            <g id="Group_1183761" data-name="Group 1183761">
              <g id="Group_1183760" data-name="Group 1183760">
                <path id="Path_1017465" data-name="Path 1017465" d="M181.086,378.414c5.181,1.405,9.793,6.925,9.793,11.214,0,4.822-2.087,7.107-5.273,9.033a1.054,1.054,0,0,1-.568.158h-12.78a1.049,1.049,0,0,1-.568-.158c-3.186-1.926-5.274-4.211-5.274-9.033,0-4.289,4.613-9.809,9.793-11.214a1.085,1.085,0,0,0,.811-1.06V375.43h3.255v1.925A1.085,1.085,0,0,0,181.086,378.414Z" transform="translate(-166.417 -372.927)" fill="#edc84e" fill-rule="evenodd"/>
                <path id="Path_1017466" data-name="Path 1017466" d="M190.622,369.037h5.506c.179,1.067-.619,1.71-1.126,2.5h-3.255C190.711,370.813,191,369.871,190.622,369.037Z" transform="translate(-181.144 -369.037)" fill="#edc84e" fill-rule="evenodd"/>
              </g>
              <path id="Path_1017467" data-name="Path 1017467" d="M192.028,376.707h4a.335.335,0,0,1,.334.334v1.443a.335.335,0,0,1-.334.334h-4a.334.334,0,0,1-.334-.334v-1.443A.334.334,0,0,1,192.028,376.707Z" transform="translate(-181.796 -373.704)" fill="#3b4866" fill-rule="evenodd"/>
            </g>
            <g id="Group_1183762" data-name="Group 1183762" transform="translate(5.314 10.411)">
              <path id="Path_1017468" data-name="Path 1017468" d="M186.9,395.625a6.917,6.917,0,1,0,6.917,6.917A6.917,6.917,0,0,0,186.9,395.625Z" transform="translate(-179.988 -395.625)" fill="#fce38f" fill-rule="evenodd"/>
              <path id="Path_1017469" data-name="Path 1017469" d="M191.064,406.777l.267-.031a.3.3,0,0,1,.33.242,2.192,2.192,0,0,0,.249.709,1.606,1.606,0,0,0,.689.617,2.131,2.131,0,0,0,.6.193l-.031-2.867a5.183,5.183,0,0,1-1.192-.45,1.977,1.977,0,0,1-.729-.737,2.062,2.062,0,0,1-.249-.991,2.287,2.287,0,0,1,.28-1.134,1.887,1.887,0,0,1,.842-.808,2.719,2.719,0,0,1,1-.275l-.01-.906a.3.3,0,0,1,.6-.007l.01.914a2.765,2.765,0,0,1,.971.258,2.012,2.012,0,0,1,.894.832,2.61,2.61,0,0,1,.318.942.3.3,0,0,1-.267.341l-.281.029a.3.3,0,0,1-.325-.239,1.587,1.587,0,0,0-.441-.867,1.444,1.444,0,0,0-.859-.358l.028,2.528a6.808,6.808,0,0,1,1.236.421,2.149,2.149,0,0,1,.881.8,2.23,2.23,0,0,1,.293,1.128,2.435,2.435,0,0,1-.3,1.2,2.154,2.154,0,0,1-.879.884,2.666,2.666,0,0,1-1.183.323l.007.643a.3.3,0,1,1-.6.007l-.007-.664a3.005,3.005,0,0,1-1.059-.28,2.269,2.269,0,0,1-.984-.938,2.927,2.927,0,0,1-.365-1.128.289.289,0,0,1,.062-.221.285.285,0,0,1,.2-.113Zm2.736,1.756a2.038,2.038,0,0,0,.745-.184,1.264,1.264,0,0,0,.763-1.188,1.162,1.162,0,0,0-.192-.652,1.394,1.394,0,0,0-.616-.463,7.107,7.107,0,0,0-.73-.24l.03,2.727Zm-.671-6.35a1.474,1.474,0,0,0-.908.35,1.122,1.122,0,0,0-.363.85.991.991,0,0,0,.271.7,2.563,2.563,0,0,0,1.026.463Z" transform="translate(-186.566 -398.309)" fill="#ad715c" fill-rule="evenodd"/>
            </g>
          </g>
          <g id="Group_1183767" data-name="Group 1183767" transform="translate(16.29 4.436)">
            <g id="Group_1183765" data-name="Group 1183765">
              <g id="Group_1183764" data-name="Group 1183764">
                <path id="Path_1017470" data-name="Path 1017470" d="M224.074,379.106c5.67,1.538,10.719,7.579,10.719,12.274,0,5.277-2.285,7.778-5.772,9.886a1.154,1.154,0,0,1-.621.173H214.412a1.153,1.153,0,0,1-.621-.173c-3.487-2.108-5.772-4.609-5.772-9.886,0-4.694,5.048-10.735,10.719-12.274a1.189,1.189,0,0,0,.888-1.16V375.84h3.562v2.107A1.188,1.188,0,0,0,224.074,379.106Z" transform="translate(-208.019 -373.1)" fill="#edc84e" fill-rule="evenodd"/>
                <path id="Path_1017471" data-name="Path 1017471" d="M234.512,368.842h6.027c.2,1.167-.678,1.871-1.232,2.74h-3.562C234.609,370.786,234.923,369.755,234.512,368.842Z" transform="translate(-224.138 -368.842)" fill="#edc84e" fill-rule="evenodd"/>
              </g>
              <path id="Path_1017472" data-name="Path 1017472" d="M236.05,377.237h4.377a.366.366,0,0,1,.365.365v1.58a.366.366,0,0,1-.365.365H236.05a.366.366,0,0,1-.365-.365V377.6A.366.366,0,0,1,236.05,377.237Z" transform="translate(-224.852 -373.95)" fill="#3b4866" fill-rule="evenodd"/>
            </g>
            <g id="Group_1183766" data-name="Group 1183766" transform="translate(5.816 11.395)">
              <path id="Path_1017473" data-name="Path 1017473" d="M230.443,397.943a7.57,7.57,0,1,0,7.57,7.57A7.571,7.571,0,0,0,230.443,397.943Z" transform="translate(-222.872 -397.943)" fill="#fce38f" fill-rule="evenodd"/>
              <path id="Path_1017474" data-name="Path 1017474" d="M234.995,410.147l.292-.034a.327.327,0,0,1,.361.265,2.409,2.409,0,0,0,.273.775,1.758,1.758,0,0,0,.753.675,2.321,2.321,0,0,0,.657.211L237.3,408.9a5.657,5.657,0,0,1-1.3-.492,2.148,2.148,0,0,1-.8-.806,2.257,2.257,0,0,1-.273-1.084,2.508,2.508,0,0,1,.306-1.242,2.068,2.068,0,0,1,.921-.884,3,3,0,0,1,1.1-.3l-.011-.991a.329.329,0,1,1,.657-.007l.011,1a3.028,3.028,0,0,1,1.062.283,2.2,2.2,0,0,1,.979.91,2.861,2.861,0,0,1,.348,1.031.329.329,0,0,1-.292.373l-.307.031a.327.327,0,0,1-.355-.262,1.734,1.734,0,0,0-.483-.949,1.583,1.583,0,0,0-.941-.392l.031,2.768a7.5,7.5,0,0,1,1.353.461,2.356,2.356,0,0,1,.965.878,2.443,2.443,0,0,1,.321,1.235,2.661,2.661,0,0,1-.324,1.314,2.36,2.36,0,0,1-.961.968,2.92,2.92,0,0,1-1.3.354l.008.7a.329.329,0,0,1-.657.007l-.008-.727a3.291,3.291,0,0,1-1.159-.306,2.479,2.479,0,0,1-1.077-1.027,3.192,3.192,0,0,1-.4-1.234.328.328,0,0,1,.287-.364Zm2.995,1.922a2.224,2.224,0,0,0,.815-.2,1.382,1.382,0,0,0,.835-1.3,1.274,1.274,0,0,0-.21-.713,1.527,1.527,0,0,0-.673-.507,7.546,7.546,0,0,0-.8-.263l.033,2.984Zm-.735-6.951a1.619,1.619,0,0,0-.995.383,1.232,1.232,0,0,0-.4.931,1.087,1.087,0,0,0,.3.771,2.816,2.816,0,0,0,1.123.507Z" transform="translate(-230.071 -400.879)" fill="#ad715c" fill-rule="evenodd"/>
            </g>
          </g>
        </g>
        <g id="Group_1183777" data-name="Group 1183777" transform="translate(119.309 0)">
          <g id="Group_1183769" data-name="Group 1183769" transform="translate(0.128 76.437)">
            <ellipse id="Ellipse_13862" data-name="Ellipse 13862" cx="12.86" cy="4.002" rx="12.86" ry="4.002" fill="#edc84e"/>
            <path id="Path_1017475" data-name="Path 1017475" d="M486.491,405.884c6.308,0,11.453-1.339,11.453-2.98s-5.145-2.98-11.453-2.98-11.453,1.339-11.453,2.98S480.183,405.884,486.491,405.884Z" transform="translate(-473.631 -399.486)" fill="#cc9839" fill-rule="evenodd"/>
            <path id="Path_1017476" data-name="Path 1017476" d="M484.3,413.03c-7.1,0-12.86-1.792-12.86-4v2.926a1.738,1.738,0,0,0,.977,1.585,30.984,30.984,0,0,0,23.766,0,1.738,1.738,0,0,0,.977-1.585v-2.926C497.164,411.238,491.406,413.03,484.3,413.03Z" transform="translate(-471.444 -405.025)" fill="#cc9839" fill-rule="evenodd"/>
            <path id="Path_1017477" data-name="Path 1017477" d="M494.322,405.906c-.011-.074-.024-.148-.036-.221-.021-.127.127-.239.336-.258a4.367,4.367,0,0,0,.95-.179,2.054,2.054,0,0,0,.852-.522,1.4,1.4,0,0,0,.3-.44l-1.941,0-2.006,0a3.238,3.238,0,0,1-.661.857,2.792,2.792,0,0,1-1.1.533,5.793,5.793,0,0,1-1.535.151,7.493,7.493,0,0,1-1.809-.251,2.523,2.523,0,0,1-1.208-.616.886.886,0,0,1-.262-.681l-1.441,0c-.268,0-.449-.09-.4-.2s.292-.2.55-.2h1.4a1.691,1.691,0,0,1,.541-.626,3.4,3.4,0,0,1,1.288-.556,7.581,7.581,0,0,1,1.34-.186.836.836,0,0,1,.316.038c.092.031.142.074.151.125s.018.115.028.172c.016.1-.136.182-.354.2a4.149,4.149,0,0,0-1.276.275,1.094,1.094,0,0,0-.614.556l3.725,0a3.334,3.334,0,0,1,.625-.8,2.889,2.889,0,0,1,1.156-.528,7.178,7.178,0,0,1,1.623-.159,7.9,7.9,0,0,1,1.717.18,2.568,2.568,0,0,1,1.183.527.892.892,0,0,1,.307.769h.855c.22,0,.374.092.346.209s-.223.217-.436.216l-.861,0a2.212,2.212,0,0,1-.487.8,3.064,3.064,0,0,1-1.268.788,5.058,5.058,0,0,1-1.468.266.553.553,0,0,1-.29-.063.242.242,0,0,1-.143-.173Zm2.488-2.04a.727.727,0,0,0-.2-.493,1.359,1.359,0,0,0-.668-.364,3.783,3.783,0,0,0-.965-.116,3.456,3.456,0,0,0-.932.113,1.531,1.531,0,0,0-.668.385,3.3,3.3,0,0,0-.351.479l1.913,0,1.869,0Zm-9.142.409a.719.719,0,0,0,.446.628,2.942,2.942,0,0,0,1.3.278A2.628,2.628,0,0,0,490.5,405a1.866,1.866,0,0,0,.716-.72Z" transform="translate(-479.301 -400.984)" fill="#edc84e" fill-rule="evenodd"/>
          </g>
          <g id="Group_1183770" data-name="Group 1183770" transform="translate(3.275 72.236)">
            <ellipse id="Ellipse_13863" data-name="Ellipse 13863" cx="12.86" cy="4.002" rx="12.86" ry="4.002" fill="#edc84e"/>
            <path id="Path_1017478" data-name="Path 1017478" d="M494.528,395.153c6.308,0,11.453-1.339,11.453-2.98s-5.145-2.98-11.453-2.98-11.453,1.339-11.453,2.98S488.219,395.153,494.528,395.153Z" transform="translate(-481.668 -388.755)" fill="#cc9839" fill-rule="evenodd"/>
            <path id="Path_1017479" data-name="Path 1017479" d="M492.341,402.3c-7.1,0-12.86-1.792-12.86-4v2.926a1.738,1.738,0,0,0,.977,1.585,30.984,30.984,0,0,0,23.766,0,1.738,1.738,0,0,0,.977-1.585V398.3C505.2,400.507,499.443,402.3,492.341,402.3Z" transform="translate(-479.481 -394.294)" fill="#cc9839" fill-rule="evenodd"/>
            <path id="Path_1017480" data-name="Path 1017480" d="M502.358,395.178c-.011-.074-.024-.148-.036-.221-.021-.127.127-.239.336-.258a4.366,4.366,0,0,0,.95-.179,2.057,2.057,0,0,0,.852-.522,1.4,1.4,0,0,0,.3-.44l-1.941,0-2.006,0a3.234,3.234,0,0,1-.661.857,2.79,2.79,0,0,1-1.1.533,5.792,5.792,0,0,1-1.535.151,7.515,7.515,0,0,1-1.809-.251,2.52,2.52,0,0,1-1.208-.617.884.884,0,0,1-.262-.681l-1.441,0c-.268,0-.449-.09-.4-.2s.292-.2.55-.2h1.4a1.694,1.694,0,0,1,.541-.626,3.4,3.4,0,0,1,1.288-.556,7.55,7.55,0,0,1,1.34-.185.82.82,0,0,1,.316.038c.092.032.142.074.151.125s.018.115.028.171c.016.1-.136.182-.354.2a4.142,4.142,0,0,0-1.276.275,1.092,1.092,0,0,0-.614.556l3.724,0a3.33,3.33,0,0,1,.625-.8,2.889,2.889,0,0,1,1.156-.528,7.157,7.157,0,0,1,1.623-.159,7.87,7.87,0,0,1,1.717.18,2.566,2.566,0,0,1,1.183.527.891.891,0,0,1,.307.769h.855c.22,0,.374.092.346.209s-.223.217-.436.216h-.861a2.211,2.211,0,0,1-.487.8,3.063,3.063,0,0,1-1.268.788,5.058,5.058,0,0,1-1.468.266.551.551,0,0,1-.29-.063.246.246,0,0,1-.143-.173Zm2.488-2.041a.727.727,0,0,0-.2-.493,1.356,1.356,0,0,0-.668-.364,3.764,3.764,0,0,0-.965-.116,3.44,3.44,0,0,0-.932.114,1.538,1.538,0,0,0-.668.384,3.3,3.3,0,0,0-.351.479l1.913,0,1.869,0Zm-9.142.409a.72.72,0,0,0,.445.628,2.931,2.931,0,0,0,1.3.278,2.628,2.628,0,0,0,1.085-.181,1.864,1.864,0,0,0,.716-.72Z" transform="translate(-487.337 -390.256)" fill="#edc84e" fill-rule="evenodd"/>
          </g>
          <g id="Group_1183771" data-name="Group 1183771" transform="translate(0 69.031)">
            <ellipse id="Ellipse_13864" data-name="Ellipse 13864" cx="12.86" cy="4.002" rx="12.86" ry="4.002" fill="#edc84e"/>
            <path id="Path_1017481" data-name="Path 1017481" d="M486.163,386.968c6.308,0,11.453-1.339,11.453-2.98s-5.145-2.98-11.453-2.98-11.453,1.339-11.453,2.98S479.855,386.968,486.163,386.968Z" transform="translate(-473.303 -380.57)" fill="#cc9839" fill-rule="evenodd"/>
            <path id="Path_1017482" data-name="Path 1017482" d="M483.976,394.114c-7.1,0-12.86-1.792-12.86-4v2.926a1.738,1.738,0,0,0,.977,1.585,30.99,30.99,0,0,0,23.767,0,1.738,1.738,0,0,0,.977-1.585v-2.926C496.836,392.322,491.078,394.114,483.976,394.114Z" transform="translate(-471.116 -386.109)" fill="#cc9839" fill-rule="evenodd"/>
            <path id="Path_1017483" data-name="Path 1017483" d="M493.993,386.993c-.011-.074-.024-.148-.036-.221-.021-.127.127-.239.336-.258a4.371,4.371,0,0,0,.95-.179,2.058,2.058,0,0,0,.852-.522,1.4,1.4,0,0,0,.3-.44l-1.941,0-2.006,0a3.235,3.235,0,0,1-.661.857,2.791,2.791,0,0,1-1.1.533,5.794,5.794,0,0,1-1.535.151,7.513,7.513,0,0,1-1.809-.251,2.522,2.522,0,0,1-1.208-.617.885.885,0,0,1-.262-.681l-1.441,0c-.268,0-.449-.09-.4-.2s.292-.195.55-.2h1.4a1.694,1.694,0,0,1,.541-.626,3.4,3.4,0,0,1,1.288-.556,7.539,7.539,0,0,1,1.34-.185.821.821,0,0,1,.316.038c.092.031.142.074.151.125s.018.115.028.172c.016.1-.136.182-.354.2a4.147,4.147,0,0,0-1.277.275,1.093,1.093,0,0,0-.614.556l3.724,0a3.332,3.332,0,0,1,.625-.8,2.889,2.889,0,0,1,1.156-.528,7.157,7.157,0,0,1,1.623-.159,7.877,7.877,0,0,1,1.717.18,2.568,2.568,0,0,1,1.183.527.893.893,0,0,1,.307.769h.855c.22,0,.374.092.346.209s-.223.217-.436.216l-.861,0a2.211,2.211,0,0,1-.487.8,3.063,3.063,0,0,1-1.268.788,5.056,5.056,0,0,1-1.467.266.551.551,0,0,1-.29-.063.245.245,0,0,1-.143-.172Zm2.489-2.041a.727.727,0,0,0-.2-.493,1.357,1.357,0,0,0-.668-.364,3.766,3.766,0,0,0-.965-.116,3.439,3.439,0,0,0-.932.114,1.534,1.534,0,0,0-.668.384,3.3,3.3,0,0,0-.351.479l1.913,0,1.869,0Zm-9.142.409a.719.719,0,0,0,.446.628,2.932,2.932,0,0,0,1.3.278,2.628,2.628,0,0,0,1.085-.181,1.863,1.863,0,0,0,.716-.721Z" transform="translate(-478.972 -382.071)" fill="#edc84e" fill-rule="evenodd"/>
          </g>
          <g id="Group_1183772" data-name="Group 1183772" transform="translate(2.721 62.054)">
            <ellipse id="Ellipse_13865" data-name="Ellipse 13865" cx="12.86" cy="4.002" rx="12.86" ry="4.002" fill="#edc84e"/>
            <ellipse id="Ellipse_13866" data-name="Ellipse 13866" cx="11.453" cy="2.98" rx="11.453" ry="2.98" transform="translate(1.407 0.438)" fill="#cc9839"/>
            <path id="Path_1017484" data-name="Path 1017484" d="M490.926,376.3c-7.1,0-12.86-1.792-12.86-4v2.926a1.738,1.738,0,0,0,.977,1.585,30.984,30.984,0,0,0,23.766,0,1.738,1.738,0,0,0,.977-1.585v-2.926C503.786,374.5,498.028,376.3,490.926,376.3Z" transform="translate(-478.066 -368.29)" fill="#cc9839" fill-rule="evenodd"/>
            <path id="Path_1017485" data-name="Path 1017485" d="M500.943,369.171c-.011-.074-.024-.148-.036-.221-.021-.127.127-.239.336-.258a4.37,4.37,0,0,0,.95-.179,2.055,2.055,0,0,0,.852-.522,1.4,1.4,0,0,0,.3-.44l-1.941,0-2.006,0a3.238,3.238,0,0,1-.661.857,2.785,2.785,0,0,1-1.1.532,5.792,5.792,0,0,1-1.535.151,7.5,7.5,0,0,1-1.809-.251,2.52,2.52,0,0,1-1.208-.616.886.886,0,0,1-.262-.681l-1.441,0c-.268,0-.449-.09-.4-.2s.292-.2.55-.2h1.4a1.69,1.69,0,0,1,.541-.626,3.4,3.4,0,0,1,1.288-.556,7.582,7.582,0,0,1,1.34-.186.837.837,0,0,1,.316.038c.092.031.142.074.151.125s.018.115.028.172c.016.1-.136.182-.354.2a4.148,4.148,0,0,0-1.277.275,1.094,1.094,0,0,0-.614.556l3.725,0a3.335,3.335,0,0,1,.625-.8,2.889,2.889,0,0,1,1.156-.528,7.179,7.179,0,0,1,1.623-.159,7.9,7.9,0,0,1,1.717.18,2.57,2.57,0,0,1,1.183.527.893.893,0,0,1,.307.769h.855c.22,0,.374.092.346.209s-.223.217-.436.216l-.861,0a2.211,2.211,0,0,1-.487.8,3.069,3.069,0,0,1-1.268.788,5.073,5.073,0,0,1-1.468.266.551.551,0,0,1-.29-.063.242.242,0,0,1-.143-.172Zm2.488-2.04a.726.726,0,0,0-.2-.493,1.357,1.357,0,0,0-.668-.364,3.781,3.781,0,0,0-.965-.116,3.456,3.456,0,0,0-.932.113,1.531,1.531,0,0,0-.668.384,3.318,3.318,0,0,0-.352.479l1.913,0,1.869,0Zm-9.142.409a.72.72,0,0,0,.445.628,2.937,2.937,0,0,0,1.3.278,2.628,2.628,0,0,0,1.085-.181,1.864,1.864,0,0,0,.716-.72Z" transform="translate(-485.922 -364.249)" fill="#edc84e" fill-rule="evenodd"/>
          </g>
          <g id="Group_1183773" data-name="Group 1183773" transform="translate(17.46 70.497)">
            <path id="Path_1017486" data-name="Path 1017486" d="M533.553,389.886c5.225,4.811,8.247,10.029,6.749,11.655s-6.946-.956-12.171-5.767-8.246-10.029-6.749-11.655S528.329,385.076,533.553,389.886Z" transform="translate(-518.926 -383.633)" fill="#edc84e" fill-rule="evenodd"/>
            <path id="Path_1017487" data-name="Path 1017487" d="M535.7,391.3c4.653,4.284,7.521,8.74,6.406,9.95s-5.791-1.281-10.444-5.565-7.521-8.74-6.406-9.95S531.049,387.018,535.7,391.3Z" transform="translate(-521.372 -384.727)" fill="#cc9839" fill-rule="evenodd"/>
            <path id="Path_1017488" data-name="Path 1017488" d="M524.911,396.53c-5.225-4.811-8.246-10.029-6.749-11.655l-1.982,2.152a1.738,1.738,0,0,0-.355,1.827,30.986,30.986,0,0,0,17.484,16.1,1.738,1.738,0,0,0,1.792-.5l1.982-2.152C535.585,403.923,530.136,401.341,524.911,396.53Z" transform="translate(-515.706 -384.389)" fill="#cc9839" fill-rule="evenodd"/>
            <path id="Path_1017489" data-name="Path 1017489" d="M539.077,399.99c.042-.061.083-.125.123-.187.07-.108.255-.091.422.037a4.327,4.327,0,0,0,.821.513,2.052,2.052,0,0,0,.98.192,1.392,1.392,0,0,0,.521-.118l-1.426-1.317-1.473-1.361a3.239,3.239,0,0,1-1.067.183,2.787,2.787,0,0,1-1.168-.352,5.739,5.739,0,0,1-1.232-.929,7.458,7.458,0,0,1-1.16-1.41,2.525,2.525,0,0,1-.471-1.271.884.884,0,0,1,.269-.679q-.524-.485-1.059-.978c-.2-.182-.269-.37-.162-.419s.347.054.537.228l1.034.951a1.688,1.688,0,0,1,.822-.095,3.411,3.411,0,0,1,1.324.463,7.592,7.592,0,0,1,1.111.771.832.832,0,0,1,.207.242c.046.085.054.151.026.195s-.065.1-.1.145c-.052.081-.223.041-.4-.093a4.121,4.121,0,0,0-1.125-.662,1.093,1.093,0,0,0-.828-.007l2.743,2.52a3.325,3.325,0,0,1,1-.162,2.893,2.893,0,0,1,1.208.394,7.174,7.174,0,0,1,1.3.982,7.876,7.876,0,0,1,1.141,1.3,2.573,2.573,0,0,1,.514,1.19.892.892,0,0,1-.3.774l.629.579c.162.148.212.321.113.388s-.311.008-.467-.137l-.632-.583a2.206,2.206,0,0,1-.9.26,3.068,3.068,0,0,1-1.466-.279,5.065,5.065,0,0,1-1.26-.8.548.548,0,0,1-.17-.243.244.244,0,0,1,.011-.224Zm3.213.184a.728.728,0,0,0,.188-.5,1.358,1.358,0,0,0-.245-.72,3.739,3.739,0,0,0-.631-.738,3.462,3.462,0,0,0-.762-.548,1.529,1.529,0,0,0-.752-.17,3.252,3.252,0,0,0-.583.114l1.408,1.294,1.376,1.265Zm-7-5.891a.719.719,0,0,0-.1.764,2.935,2.935,0,0,0,.771,1.087,2.629,2.629,0,0,0,.921.6,1.869,1.869,0,0,0,1.015-.045Q536.617,395.509,535.288,394.283Z" transform="translate(-526.194 -388.653)" fill="#edc84e" fill-rule="evenodd"/>
          </g>
          <g id="Group_1183774" data-name="Group 1183774" transform="translate(1.227)">
            <path id="Path_1017490" data-name="Path 1017490" d="M481.589,206.631c4.848-2.806,9.486-3.857,10.36-2.348s-2.349,5.006-7.2,7.812-9.486,3.857-10.36,2.347S476.741,209.436,481.589,206.631Z" transform="translate(-474.248 -203.594)" fill="#edc84e" fill-rule="evenodd"/>
            <path id="Path_1017491" data-name="Path 1017491" d="M482.979,207.564c4.318-2.5,8.345-3.613,9-2.49s-2.323,4.06-6.641,6.558-8.345,3.613-9,2.49S478.662,210.063,482.979,207.564Z" transform="translate(-475.466 -204.228)" fill="#cc9839" fill-rule="evenodd"/>
            <path id="Path_1017492" data-name="Path 1017492" d="M484.973,213.164c-4.848,2.806-9.486,3.857-10.36,2.347l1.156,2a1.37,1.37,0,0,0,1.293.7,24.439,24.439,0,0,0,16.224-9.388,1.371,1.371,0,0,0,.041-1.468l-1.156-2C493.043,206.861,489.821,210.359,484.973,213.164Z" transform="translate(-474.47 -204.664)" fill="#cc9839" fill-rule="evenodd"/>
            <path id="Path_1017493" data-name="Path 1017493" d="M490.037,212.609l-.112-.137c-.065-.078-.008-.213.128-.309a3.4,3.4,0,0,0,.578-.5,1.614,1.614,0,0,0,.375-.693,1.1,1.1,0,0,0,.033-.42l-1.327.765-1.37.791a2.555,2.555,0,0,1-.112.846,2.2,2.2,0,0,1-.539.8,4.554,4.554,0,0,1-.988.71,5.872,5.872,0,0,1-1.334.543,1.992,1.992,0,0,1-1.067.056.7.7,0,0,1-.448-.361l-.985.568c-.184.106-.342.116-.353.023s.122-.249.3-.351l.959-.556a1.339,1.339,0,0,1,.121-.641,2.7,2.7,0,0,1,.659-.888,6.063,6.063,0,0,1,.841-.656.659.659,0,0,1,.231-.1c.075-.015.126-.005.152.026s.058.071.087.107c.049.058-.021.177-.163.276a3.259,3.259,0,0,0-.763.692.861.861,0,0,0-.2.622l2.541-1.474a2.635,2.635,0,0,1,.112-.79,2.29,2.29,0,0,1,.58-.817,5.708,5.708,0,0,1,1.045-.75,6.241,6.241,0,0,1,1.244-.556,2.024,2.024,0,0,1,1.016-.107.7.7,0,0,1,.513.4l.584-.338c.15-.087.292-.085.319.006s-.067.236-.213.32l-.588.339a1.75,1.75,0,0,1-.016.74,2.421,2.421,0,0,1-.554,1.039,3.986,3.986,0,0,1-.9.761.437.437,0,0,1-.223.071.191.191,0,0,1-.166-.061Zm.892-2.376a.57.57,0,0,0-.33-.258,1.069,1.069,0,0,0-.6.016,2.968,2.968,0,0,0-.7.3,2.748,2.748,0,0,0-.591.445,1.2,1.2,0,0,0-.3.526,2.658,2.658,0,0,0-.051.466l1.305-.757,1.275-.739Zm-6.079,3.89a.568.568,0,0,0,.552.253,2.3,2.3,0,0,0,1-.326,2.07,2.07,0,0,0,.669-.552,1.471,1.471,0,0,0,.2-.775Z" transform="translate(-479.277 -207.066)" fill="#edc84e" fill-rule="evenodd"/>
          </g>
          <g id="Group_1183775" data-name="Group 1183775" transform="translate(10.927 35.666)">
            <path id="Path_1017494" data-name="Path 1017494" d="M503.775,303.236c4.056-5.852,8.82-9.573,10.642-8.311s.01,7.03-4.045,12.882-8.82,9.573-10.641,8.311S499.719,309.089,503.775,303.236Z" transform="translate(-499.021 -294.679)" fill="#edc84e" fill-rule="evenodd"/>
            <path id="Path_1017495" data-name="Path 1017495" d="M505.042,304.913c3.611-5.212,7.639-8.675,9-7.735s-.473,5.927-4.084,11.139-7.639,8.675-9,7.735S501.431,310.125,505.042,304.913Z" transform="translate(-499.927 -296.106)" fill="#cc9839" fill-rule="evenodd"/>
            <path id="Path_1017496" data-name="Path 1017496" d="M511.472,308.189c-4.056,5.852-8.82,9.573-10.641,8.311l2.411,1.671a1.742,1.742,0,0,0,1.863.1,31.064,31.064,0,0,0,13.572-19.584,1.741,1.741,0,0,0-.748-1.709l-2.411-1.671C517.339,296.569,515.528,302.337,511.472,308.189Z" transform="translate(-500.122 -295.061)" fill="#cc9839" fill-rule="evenodd"/>
            <path id="Path_1017497" data-name="Path 1017497" d="M513.451,311.135c-.067-.033-.135-.064-.2-.1-.117-.055-.125-.241-.021-.425a4.329,4.329,0,0,0,.4-.886,2.057,2.057,0,0,0,.056-1,1.411,1.411,0,0,0-.189-.5l-1.111,1.6-1.147,1.652a3.249,3.249,0,0,1,.329,1.034,2.8,2.8,0,0,1-.188,1.208,5.787,5.787,0,0,1-.752,1.351,7.5,7.5,0,0,1-1.24,1.347,2.525,2.525,0,0,1-1.2.643.886.886,0,0,1-.711-.173l-.825,1.186c-.154.221-.33.319-.393.219s.005-.352.153-.565q.4-.583.8-1.158a1.689,1.689,0,0,1-.207-.8,3.418,3.418,0,0,1,.277-1.379,7.581,7.581,0,0,1,.612-1.21.83.83,0,0,1,.212-.238c.079-.058.143-.075.19-.053l.157.075c.087.041.072.216-.038.406a4.154,4.154,0,0,0-.5,1.209,1.1,1.1,0,0,0,.107.823l2.124-3.071a3.311,3.311,0,0,1-.3-.969,2.9,2.9,0,0,1,.225-1.254,7.188,7.188,0,0,1,.8-1.428,7.9,7.9,0,0,1,1.129-1.312,2.582,2.582,0,0,1,1.11-.674.892.892,0,0,1,.809.186c.164-.237.325-.471.488-.7.125-.181.29-.256.37-.166s.051.307-.071.483l-.493.708a2.2,2.2,0,0,1,.383.859,3.076,3.076,0,0,1-.075,1.495,5.058,5.058,0,0,1-.619,1.361.543.543,0,0,1-.218.2.248.248,0,0,1-.225.02Zm-.26-3.216a.727.727,0,0,0-.519-.118,1.366,1.366,0,0,0-.681.343,3.771,3.771,0,0,0-.646.729,3.458,3.458,0,0,0-.439.832,1.526,1.526,0,0,0-.065.769,3.285,3.285,0,0,0,.193.563l1.091-1.578,1.066-1.541Zm-4.883,7.766a.722.722,0,0,0,.773-.008,2.93,2.93,0,0,0,.972-.915,2.632,2.632,0,0,0,.471-1,1.871,1.871,0,0,0-.185-1Q509.341,314.2,508.307,315.686Z" transform="translate(-503.407 -301.549)" fill="#edc84e" fill-rule="evenodd"/>
          </g>
          <g id="Group_1183776" data-name="Group 1183776" transform="translate(19.207 15.524)">
            <path id="Path_1017498" data-name="Path 1017498" d="M556.758,257.258c10.133,10.426,15.717,21.435,12.472,24.589s-14.09-2.742-24.223-13.167-15.718-21.435-12.473-24.589S546.625,246.832,556.758,257.258Z" transform="translate(-527.131 -243.241)" fill="#edc84e" fill-rule="evenodd"/>
            <path id="Path_1017499" data-name="Path 1017499" d="M561.1,260.289c9.024,9.285,14.382,18.716,11.965,21.065s-11.691-3.275-20.715-12.561-14.382-18.716-11.965-21.065S552.077,251,561.1,260.289Z" transform="translate(-532.117 -245.646)" fill="#cc9839" fill-rule="evenodd"/>
            <path id="Path_1017500" data-name="Path 1017500" d="M538.045,270c-10.133-10.426-15.718-21.435-12.473-24.589l-4.295,4.174a3.556,3.556,0,0,0-.933,3.694c1.986,6.306,6.707,13.861,13.476,20.825s14.186,11.9,20.433,14.065a3.556,3.556,0,0,0,3.719-.827l4.3-4.175C559.023,286.321,548.177,280.426,538.045,270Z" transform="translate(-520.168 -244.561)" fill="#cc9839" fill-rule="evenodd"/>
            <path id="Path_1017501" data-name="Path 1017501" d="M567.184,278.268c.094-.121.183-.246.273-.368.156-.213.531-.156.858.125a8.91,8.91,0,0,0,1.619,1.14,4.2,4.2,0,0,0,1.981.505,2.865,2.865,0,0,0,1.078-.183l-2.766-2.853-2.858-2.948a6.634,6.634,0,0,1-2.2.253,5.7,5.7,0,0,1-2.348-.852,11.824,11.824,0,0,1-2.413-2.038,15.3,15.3,0,0,1-2.212-3.014,5.158,5.158,0,0,1-.818-2.651,1.809,1.809,0,0,1,.626-1.358l-2.053-2.118c-.383-.4-.509-.787-.284-.874s.7.149,1.073.528l2.006,2.061a3.452,3.452,0,0,1,1.69-.1,6.972,6.972,0,0,1,2.655,1.1,15.6,15.6,0,0,1,2.184,1.7,1.726,1.726,0,0,1,.4.519c.084.181.094.315.031.4s-.143.191-.212.286c-.117.159-.461.059-.8-.235a8.466,8.466,0,0,0-2.225-1.481,2.239,2.239,0,0,0-1.692-.108l5.319,5.463a6.787,6.787,0,0,1,2.059-.218,5.919,5.919,0,0,1,2.424.944,14.679,14.679,0,0,1,2.549,2.155,16.178,16.178,0,0,1,2.186,2.778,5.271,5.271,0,0,1,.914,2.49,1.825,1.825,0,0,1-.692,1.548l1.221,1.254c.314.322.4.681.186.806s-.635-.019-.939-.332l-1.226-1.265a4.509,4.509,0,0,1-1.872.429,6.276,6.276,0,0,1-2.965-.737,10.362,10.362,0,0,1-2.484-1.775,1.125,1.125,0,0,1-.321-.516.513.513,0,0,1,.051-.46Zm6.546.741a1.488,1.488,0,0,0,.441-.994,2.782,2.782,0,0,0-.419-1.5,7.728,7.728,0,0,0-1.206-1.582,7.038,7.038,0,0,0-1.5-1.206,3.128,3.128,0,0,0-1.517-.433,6.748,6.748,0,0,0-1.2.167l2.732,2.8,2.669,2.742Zm-13.644-12.836a1.472,1.472,0,0,0-.288,1.551,5.99,5.99,0,0,0,1.452,2.308,5.375,5.375,0,0,0,1.814,1.335,3.809,3.809,0,0,0,2.079.023Q562.664,268.83,560.087,266.173Z" transform="translate(-541.699 -254.056)" fill="#edc84e" fill-rule="evenodd"/>
          </g>
        </g>
      </g>
    </g>
  </g>
</svg>
